<svg width="1349" height="77" viewBox="0 0 1349 77" fill="none" xmlns="http://www.w3.org/2000/svg">
<g filter="url(#filter0_i_146_9)">
<rect width="1349" height="76.0258" fill="#FBB739"/>
</g>
<path d="M606.92 62.176C604.968 62.176 603.496 61.856 602.504 61.216C601.512 60.576 601 59.52 600.968 58.048C600.968 57.728 601.144 57.568 601.496 57.568C601.784 57.568 602.216 57.648 602.792 57.808C603.4 57.936 604.536 58 606.2 58C609.016 58 611.608 57.712 613.976 57.136C616.344 56.528 618.392 55.728 620.12 54.736C621.88 53.712 623.24 52.576 624.2 51.328C625.16 50.048 625.64 48.72 625.64 47.344C625.64 46.096 625.256 45.104 624.488 44.368C623.752 43.6 622.76 43.024 621.512 42.64C620.296 42.224 618.952 41.952 617.48 41.824C616.04 41.696 614.616 41.632 613.208 41.632C612.6 41.632 611.992 41.648 611.384 41.68C610.776 41.68 610.2 41.68 609.656 41.68C608.952 44.112 608.264 46.624 607.592 49.216C606.92 51.808 606.216 54.352 605.48 56.848C604.52 56.848 603.688 56.592 602.984 56.08C602.28 55.568 601.928 54.944 601.928 54.208C601.928 53.92 601.976 53.552 602.072 53.104C602.2 52.624 602.376 52.064 602.6 51.424C602.792 50.816 603.112 49.808 603.56 48.4C604.04 46.992 604.6 45.328 605.24 43.408C605.88 41.488 606.584 39.472 607.352 37.36C608.152 35.216 608.968 33.12 609.8 31.072C610.664 29.024 611.512 27.184 612.344 25.552C611.064 25.84 610.008 26.176 609.176 26.56C608.344 26.944 607.688 27.28 607.208 27.568C606.728 27.856 606.36 28 606.104 28C605.912 28 605.656 27.888 605.336 27.664C605.048 27.44 604.776 27.184 604.52 26.896C604.296 26.608 604.184 26.352 604.184 26.128C605.912 25.424 607.704 24.8 609.56 24.256C611.416 23.712 613.656 23.44 616.28 23.44C617.432 23.44 618.696 23.536 620.072 23.728C621.448 23.888 622.76 24.24 624.008 24.784C625.256 25.296 626.28 26.08 627.08 27.136C627.912 28.16 628.328 29.536 628.328 31.264C628.328 32.64 628.024 33.84 627.416 34.864C626.84 35.856 626.056 36.72 625.064 37.456C624.072 38.16 622.984 38.752 621.8 39.232C620.616 39.68 619.448 40.048 618.296 40.336C620.28 40.592 621.928 41.008 623.24 41.584C624.584 42.128 625.64 42.768 626.408 43.504C627.208 44.24 627.768 45.008 628.088 45.808C628.44 46.576 628.616 47.328 628.616 48.064C628.616 49.952 628.12 51.648 627.128 53.152C626.136 54.656 624.824 55.968 623.192 57.088C621.592 58.208 619.816 59.136 617.864 59.872C615.944 60.64 614.024 61.216 612.104 61.6C610.184 61.984 608.456 62.176 606.92 62.176ZM610.136 39.856C611.928 39.792 613.688 39.584 615.416 39.232C617.144 38.88 618.696 38.368 620.072 37.696C621.48 36.992 622.6 36.096 623.432 35.008C624.264 33.888 624.68 32.512 624.68 30.88C624.68 29.344 624.264 28.16 623.432 27.328C622.6 26.496 621.512 25.92 620.168 25.6C618.824 25.28 617.384 25.12 615.848 25.12C615.816 25.12 615.784 25.12 615.752 25.12C615.72 25.12 615.688 25.12 615.656 25.12C614.568 27.264 613.576 29.6 612.68 32.128C611.784 34.624 610.936 37.2 610.136 39.856ZM635.787 60.112C633.739 60.112 632.155 59.552 631.035 58.432C629.947 57.344 629.403 55.968 629.403 54.304C629.403 52.896 629.755 51.408 630.459 49.84C631.195 48.24 632.171 46.752 633.387 45.376C634.603 43.968 635.947 42.832 637.419 41.968C638.891 41.104 640.363 40.672 641.835 40.672C642.667 40.672 643.451 40.896 644.187 41.344C644.955 41.76 645.339 42.608 645.339 43.888C645.339 45.104 644.987 46.24 644.283 47.296C643.579 48.352 642.635 49.296 641.451 50.128C640.267 50.96 638.955 51.648 637.515 52.192C636.107 52.704 634.683 53.04 633.243 53.2C633.211 53.328 633.179 53.472 633.147 53.632C633.147 53.76 633.147 53.984 633.147 54.304C633.147 54.464 633.163 54.752 633.195 55.168C633.259 55.552 633.403 55.968 633.627 56.416C633.851 56.864 634.219 57.248 634.731 57.568C635.243 57.888 635.947 58.048 636.843 58.048C638.187 58.048 639.531 57.68 640.875 56.944C642.251 56.176 643.531 55.168 644.715 53.92C645.931 52.672 646.939 51.28 647.739 49.744L648.699 50.512C647.835 52.432 646.715 54.112 645.339 55.552C643.995 56.992 642.491 58.112 640.827 58.912C639.195 59.712 637.515 60.112 635.787 60.112ZM633.771 51.424C634.603 51.328 635.531 51.04 636.555 50.56C637.579 50.08 638.555 49.472 639.483 48.736C640.443 48 641.227 47.2 641.835 46.336C642.443 45.44 642.747 44.544 642.747 43.648C642.747 43.296 642.683 43.056 642.555 42.928C642.427 42.8 642.219 42.736 641.931 42.736C641.195 42.736 640.427 43.008 639.627 43.552C638.827 44.064 638.043 44.752 637.275 45.616C636.507 46.448 635.819 47.376 635.211 48.4C634.603 49.424 634.123 50.432 633.771 51.424ZM651.618 61.504C649.794 61.504 648.402 60.928 647.442 59.776C646.514 58.656 646.05 57.104 646.05 55.12C646.05 53.552 646.322 51.696 646.866 49.552C647.41 47.408 648.13 45.168 649.026 42.832C649.922 40.464 650.914 38.16 652.002 35.92C653.122 33.648 654.258 31.6 655.41 29.776C656.562 27.92 657.65 26.448 658.674 25.36C659.698 24.272 660.578 23.728 661.314 23.728C661.954 23.728 662.434 24.096 662.754 24.832C663.074 25.568 663.25 26.304 663.282 27.04C663.282 27.936 663.09 29.024 662.706 30.304C662.322 31.584 661.778 32.944 661.074 34.384C660.37 35.824 659.554 37.248 658.626 38.656C657.698 40.064 656.674 41.344 655.554 42.496C654.466 43.648 653.33 44.56 652.146 45.232C651.922 45.648 651.634 46.368 651.282 47.392C650.962 48.416 650.658 49.584 650.37 50.896C650.114 52.208 649.986 53.52 649.986 54.832C649.986 56.112 650.162 57.2 650.514 58.096C650.898 59.024 651.554 59.488 652.482 59.488C653.314 59.488 654.21 59.104 655.17 58.336C656.13 57.568 656.914 56.64 657.522 55.552C656.338 54.912 655.442 54.016 654.834 52.864C654.226 51.712 653.922 50.496 653.922 49.216C653.922 47.648 654.338 46.384 655.17 45.424C656.034 44.464 657.074 43.984 658.29 43.984C659.314 43.984 660.162 44.384 660.834 45.184C661.506 45.952 661.842 47.152 661.842 48.784C661.842 49.712 661.714 50.704 661.458 51.76C661.234 52.784 660.882 53.808 660.402 54.832C660.562 54.832 660.69 54.848 660.786 54.88C660.914 54.88 661.074 54.88 661.266 54.88C662.386 54.88 663.346 54.576 664.146 53.968C664.946 53.36 665.618 52.64 666.162 51.808C666.706 50.976 667.138 50.224 667.458 49.552L668.178 50.56C667.378 52.448 666.386 53.888 665.202 54.88C664.05 55.872 662.53 56.368 660.642 56.368C660.482 56.368 660.306 56.368 660.114 56.368C659.954 56.368 659.794 56.352 659.634 56.32C658.738 57.76 657.618 58.976 656.274 59.968C654.962 60.992 653.41 61.504 651.618 61.504ZM658.338 53.968C658.626 53.328 658.834 52.688 658.962 52.048C659.122 51.376 659.202 50.656 659.202 49.888C659.202 48.736 659.058 47.888 658.77 47.344C658.514 46.8 658.194 46.528 657.81 46.528C657.394 46.528 657.026 46.816 656.706 47.392C656.418 47.968 656.274 48.656 656.274 49.456C656.274 50.128 656.418 50.912 656.706 51.808C656.994 52.704 657.538 53.424 658.338 53.968ZM653.058 42.208C653.858 41.472 654.626 40.624 655.362 39.664C656.13 38.672 656.834 37.648 657.474 36.592C658.146 35.504 658.722 34.448 659.202 33.424C659.714 32.368 660.13 31.424 660.45 30.592C660.77 29.728 660.962 29.04 661.026 28.528C661.026 28.464 661.026 28.416 661.026 28.384C661.026 28.32 661.026 28.272 661.026 28.24C660.738 28.336 660.258 28.8 659.586 29.632C658.946 30.464 658.21 31.552 657.378 32.896C656.578 34.208 655.794 35.68 655.026 37.312C654.258 38.912 653.602 40.544 653.058 42.208ZM670.059 59.44C668.651 59.44 667.595 59.024 666.891 58.192C666.187 57.36 665.835 56.352 665.835 55.168C665.835 54.432 665.963 53.504 666.219 52.384C666.475 51.264 666.827 50.096 667.275 48.88C667.755 47.632 668.299 46.464 668.907 45.376C669.515 44.288 670.171 43.408 670.875 42.736C671.579 42.032 672.283 41.68 672.987 41.68C673.371 41.68 673.707 41.808 673.995 42.064C674.283 42.288 674.427 42.624 674.427 43.072C674.427 43.488 674.171 44.112 673.659 44.944C673.179 45.776 672.603 46.736 671.931 47.824C671.291 48.912 670.715 50.048 670.203 51.232C669.723 52.384 669.483 53.488 669.483 54.544C669.483 55.568 669.659 56.256 670.011 56.608C670.395 56.928 670.939 57.088 671.643 57.088C672.731 57.088 673.915 56.544 675.195 55.456C676.475 54.368 677.803 52.464 679.179 49.744L679.899 50.512C678.779 53.328 677.355 55.52 675.627 57.088C673.899 58.656 672.043 59.44 670.059 59.44ZM675.723 37.792C675.115 37.792 674.555 37.648 674.043 37.36C673.563 37.04 673.323 36.56 673.323 35.92C673.323 35.152 673.739 34.496 674.571 33.952C675.403 33.408 676.267 33.136 677.163 33.136C677.739 33.136 678.219 33.264 678.603 33.52C679.019 33.776 679.227 34.24 679.227 34.912C679.227 35.584 678.859 36.24 678.123 36.88C677.387 37.488 676.587 37.792 675.723 37.792ZM681.25 59.44C680.642 59.44 680.018 59.28 679.378 58.96C678.77 58.672 678.258 58.208 677.841 57.568C677.393 56.928 677.169 56.112 677.169 55.12C677.169 54.064 677.425 52.88 677.938 51.568C678.45 50.256 679.138 48.944 680.002 47.632C680.898 46.32 681.922 45.12 683.074 44.032C684.258 42.944 685.506 42.064 686.818 41.392C688.13 40.72 689.458 40.384 690.802 40.384C691.538 40.384 692.114 40.512 692.53 40.768C692.946 40.992 693.154 41.376 693.154 41.92C693.154 42.08 693.122 42.272 693.058 42.496C692.994 42.688 692.834 42.864 692.578 43.024C692.45 42.832 692.226 42.704 691.906 42.64C691.586 42.544 691.25 42.496 690.898 42.496C689.842 42.496 688.834 42.8 687.874 43.408C686.914 43.984 686.034 44.736 685.234 45.664C684.434 46.592 683.73 47.6 683.122 48.688C682.546 49.776 682.098 50.832 681.778 51.856C681.458 52.848 681.298 53.712 681.298 54.448C681.298 55.056 681.426 55.552 681.682 55.936C681.938 56.288 682.322 56.464 682.834 56.464C683.698 56.464 684.722 55.968 685.906 54.976C687.122 53.952 688.354 52.496 689.602 50.608C690.882 48.688 692.034 46.4 693.058 43.744C693.762 41.92 694.498 40.064 695.266 38.176C696.034 36.256 696.802 34.416 697.57 32.656C698.338 30.896 699.09 29.328 699.826 27.952C700.594 26.576 701.314 25.488 701.986 24.688C702.69 23.856 703.33 23.44 703.906 23.44C704.258 23.44 704.562 23.584 704.818 23.872C705.106 24.128 705.25 24.464 705.25 24.88C705.25 25.424 704.978 26.304 704.434 27.52C703.922 28.704 703.25 30.128 702.418 31.792C701.618 33.456 700.738 35.264 699.778 37.216C698.85 39.136 697.97 41.12 697.138 43.168C696.338 45.184 695.666 47.184 695.122 49.168C694.61 51.12 694.354 52.96 694.354 54.688C694.354 55.456 694.418 55.984 694.546 56.272C694.706 56.528 694.962 56.656 695.314 56.656C696.018 56.656 696.802 56.384 697.666 55.84C698.53 55.296 699.41 54.496 700.306 53.44C701.202 52.352 702.018 51.056 702.754 49.552L703.666 50.32C702.962 52.08 702.066 53.632 700.978 54.976C699.89 56.32 698.722 57.36 697.474 58.096C696.226 58.864 694.994 59.248 693.778 59.248C692.466 59.248 691.554 58.832 691.042 58C690.53 57.168 690.273 56.192 690.273 55.072C690.273 54.56 690.306 54.048 690.37 53.536C690.466 52.992 690.562 52.464 690.658 51.952C689.666 53.392 688.61 54.688 687.49 55.84C686.402 56.96 685.33 57.84 684.273 58.48C683.218 59.12 682.21 59.44 681.25 59.44ZM704.204 60.256C703.148 60.256 702.236 59.904 701.468 59.2C700.668 58.496 700.268 57.44 700.268 56.032C700.268 54.912 700.524 53.696 701.036 52.384C701.548 51.072 702.252 49.776 703.148 48.496C704.044 47.216 705.068 46.064 706.22 45.04C707.372 43.984 708.604 43.136 709.916 42.496C711.228 41.856 712.54 41.536 713.852 41.536C715.228 41.536 716.396 41.888 717.356 42.592C718.316 43.296 718.796 44.224 718.796 45.376C718.796 46.24 718.492 46.864 717.884 47.248C717.276 47.632 716.556 47.744 715.724 47.584C715.788 47.296 715.836 47.008 715.868 46.72C715.932 46.432 715.964 46.128 715.964 45.808C715.964 45.168 715.836 44.592 715.58 44.08C715.324 43.568 714.78 43.312 713.948 43.312C713.052 43.312 712.14 43.616 711.212 44.224C710.284 44.832 709.388 45.632 708.524 46.624C707.692 47.584 706.94 48.656 706.268 49.84C705.596 50.992 705.068 52.128 704.684 53.248C704.3 54.368 704.108 55.376 704.108 56.272C704.108 57.296 704.476 57.808 705.212 57.808C705.948 57.808 706.764 57.456 707.66 56.752C708.556 56.016 709.452 55.104 710.348 54.016C711.276 52.928 712.156 51.824 712.988 50.704C713.82 49.552 714.54 48.576 715.148 47.776C715.244 47.616 715.372 47.536 715.532 47.536C715.66 47.568 715.9 47.648 716.252 47.776C716.636 47.872 716.988 48.032 717.308 48.256C717.628 48.48 717.788 48.768 717.788 49.12C717.788 49.44 717.644 49.856 717.356 50.368C717.1 50.848 716.78 51.392 716.396 52C716.044 52.576 715.724 53.168 715.436 53.776C715.18 54.352 715.052 54.912 715.052 55.456C715.052 55.872 715.164 56.272 715.388 56.656C715.612 57.008 715.98 57.184 716.492 57.184C717.26 57.184 718.332 56.624 719.708 55.504C721.116 54.352 722.54 52.416 723.98 49.696L724.892 50.608C724.124 52.336 723.196 53.872 722.108 55.216C721.052 56.528 719.932 57.552 718.748 58.288C717.564 59.056 716.364 59.44 715.148 59.44C713.836 59.44 712.86 59.024 712.22 58.192C711.58 57.36 711.228 56.464 711.164 55.504C711.164 55.44 711.164 55.392 711.164 55.36C711.164 55.328 711.164 55.296 711.164 55.264C709.884 56.8 708.7 58.016 707.612 58.912C706.556 59.808 705.42 60.256 704.204 60.256ZM728.46 60.448C726.86 60.448 725.564 60.112 724.572 59.44C723.612 58.8 722.924 57.984 722.508 56.992C722.092 55.968 721.884 54.928 721.884 53.872C721.884 52.944 722.012 52.224 722.268 51.712C722.524 51.2 722.844 50.832 723.228 50.608C723.612 50.352 723.964 50.16 724.284 50.032C724.636 49.904 724.892 49.76 725.052 49.6C725.852 48.768 726.668 47.808 727.5 46.72C728.364 45.6 729.1 44.368 729.708 43.024V42.544C729.708 41.264 729.916 40.368 730.332 39.856C730.78 39.312 731.292 39.04 731.868 39.04C732.252 39.04 732.524 39.136 732.684 39.328C732.876 39.52 732.988 39.744 733.02 40C733.02 40.192 732.972 40.416 732.876 40.672C732.812 40.928 732.78 41.28 732.78 41.728C732.78 42.688 733.004 43.792 733.452 45.04C733.932 46.256 734.396 47.552 734.844 48.928C735.324 50.304 735.564 51.712 735.564 53.152C735.564 53.536 735.548 53.888 735.516 54.208C735.484 54.528 735.436 54.832 735.372 55.12C736.364 54.864 737.34 54.32 738.3 53.488C739.26 52.624 740.172 51.36 741.036 49.696L741.612 50.128C741.004 51.952 740.124 53.424 738.972 54.544C737.82 55.632 736.476 56.304 734.94 56.56C734.428 57.872 733.58 58.848 732.396 59.488C731.244 60.128 729.932 60.448 728.46 60.448ZM728.124 58.336C728.764 58.336 729.356 58.176 729.9 57.856C730.444 57.536 730.876 57.072 731.196 56.464C729.884 56.176 728.7 55.664 727.644 54.928C726.588 54.192 725.772 53.44 725.196 52.672C724.748 52.768 724.524 53.2 724.524 53.968C724.524 55.024 724.828 56.016 725.436 56.944C726.044 57.872 726.94 58.336 728.124 58.336ZM731.58 55.024C731.644 54.8 731.676 54.544 731.676 54.256C731.708 53.936 731.724 53.696 731.724 53.536C731.692 52.096 731.5 50.672 731.148 49.264C730.796 47.856 730.444 46.416 730.092 44.944C729.516 45.936 728.844 47.008 728.076 48.16C727.308 49.312 726.588 50.24 725.916 50.944C726.428 51.808 727.18 52.624 728.172 53.392C729.164 54.16 730.3 54.704 731.58 55.024Z" fill="white"/>
<defs>
<filter id="filter0_i_146_9" x="0" y="0" width="1349" height="80.0259" filterUnits="userSpaceOnUse" color-interpolation-filters="sRGB">
<feFlood flood-opacity="0" result="BackgroundImageFix"/>
<feBlend mode="normal" in="SourceGraphic" in2="BackgroundImageFix" result="shape"/>
<feColorMatrix in="SourceAlpha" type="matrix" values="0 0 0 0 0 0 0 0 0 0 0 0 0 0 0 0 0 0 127 0" result="hardAlpha"/>
<feOffset dy="4"/>
<feGaussianBlur stdDeviation="2"/>
<feComposite in2="hardAlpha" operator="arithmetic" k2="-1" k3="1"/>
<feColorMatrix type="matrix" values="0 0 0 0 0 0 0 0 0 0 0 0 0 0 0 0 0 0 0.25 0"/>
<feBlend mode="normal" in2="shape" result="effect1_innerShadow_146_9"/>
</filter>
</defs>
</svg>
