<svg width="1349" height="77" viewBox="0 0 1349 77" fill="none" xmlns="http://www.w3.org/2000/svg">
<g filter="url(#filter0_i_146_12)">
<rect width="1349" height="76.0258" fill="#FBB739"/>
</g>
<path d="M619.976 56.176C618.792 56.176 617.464 55.936 615.992 55.456C614.52 54.976 613 54.4 611.432 53.728C609.896 53.056 608.392 52.416 606.92 51.808C606.12 52.672 605.256 53.344 604.328 53.824C603.4 54.304 602.408 54.544 601.352 54.544C600.232 54.544 599.272 54.288 598.472 53.776C597.64 53.296 597.016 52.704 596.6 52C596.152 51.296 595.928 50.656 595.928 50.08C595.928 49.44 596.216 48.88 596.792 48.4C597.368 47.92 598.392 47.68 599.864 47.68C600.728 47.68 601.672 47.776 602.696 47.968C603.752 48.128 604.824 48.352 605.912 48.64C606.648 47.36 607.32 45.856 607.928 44.128C608.568 42.4 609.192 40.592 609.8 38.704C610.408 36.784 611.016 34.912 611.624 33.088C610.024 32.544 608.792 31.792 607.928 30.832C607.064 29.84 606.632 28.848 606.632 27.856C606.632 27.216 606.792 26.592 607.112 25.984C607.432 25.344 607.896 24.816 608.504 24.4C609.112 23.952 609.832 23.728 610.664 23.728C610.248 24.24 609.976 24.816 609.848 25.456C609.752 26.096 609.704 26.608 609.704 26.992C609.704 28.048 609.944 28.944 610.424 29.68C610.904 30.416 611.496 30.992 612.2 31.408C612.808 29.584 613.448 27.84 614.12 26.176C614.824 24.48 615.592 22.992 616.424 21.712C617.288 20.4 618.232 19.36 619.256 18.592C620.312 17.824 621.496 17.44 622.808 17.44C623.544 17.44 624.312 17.6 625.112 17.92C625.944 18.208 626.648 18.72 627.224 19.456C627.832 20.192 628.136 21.248 628.136 22.624C628.136 23.712 627.896 24.88 627.416 26.128C626.968 27.376 626.248 28.576 625.256 29.728C624.264 30.848 622.984 31.792 621.416 32.56C619.88 33.296 618.008 33.696 615.8 33.76C615.736 33.76 615.656 33.76 615.56 33.76C615.496 33.76 615.432 33.76 615.368 33.76C614.76 35.616 614.12 37.488 613.448 39.376C612.776 41.264 612.056 43.072 611.288 44.8C610.52 46.528 609.688 48.064 608.792 49.408C610.04 49.76 611.416 50.16 612.92 50.608C614.456 51.056 615.976 51.44 617.48 51.76C619.016 52.048 620.36 52.192 621.512 52.192C622.28 52.192 622.984 52.112 623.624 51.952C624.296 51.76 625 51.488 625.736 51.136C625.096 52.928 624.296 54.208 623.336 54.976C622.408 55.776 621.288 56.176 619.976 56.176ZM600.872 52.768C601.704 52.768 602.376 52.576 602.888 52.192C603.4 51.84 603.912 51.392 604.424 50.848C603.432 50.496 602.504 50.208 601.64 49.984C600.776 49.728 600.024 49.6 599.384 49.6C598.776 49.6 598.344 49.712 598.088 49.936C597.8 50.16 597.656 50.432 597.656 50.752C597.656 51.264 597.976 51.728 598.616 52.144C599.256 52.56 600.008 52.768 600.872 52.768ZM615.896 32.176C617.304 32.08 618.552 31.632 619.64 30.832C620.728 30.032 621.656 29.072 622.424 27.952C623.192 26.832 623.768 25.696 624.152 24.544C624.568 23.36 624.776 22.336 624.776 21.472C624.776 20.64 624.616 20.08 624.296 19.792C623.976 19.472 623.608 19.312 623.192 19.312C622.264 19.312 621.384 19.904 620.552 21.088C619.72 22.272 618.92 23.84 618.152 25.792C617.416 27.712 616.664 29.84 615.896 32.176ZM630.855 53.536C629.416 53.536 628.424 53.056 627.88 52.096C627.367 51.168 627.111 50.144 627.111 49.024C627.111 48 627.271 46.96 627.591 45.904C627.912 44.816 628.344 43.808 628.888 42.88C629.464 41.952 630.088 41.216 630.76 40.672C631.464 40.096 632.168 39.808 632.872 39.808C633.096 39.808 633.352 39.856 633.64 39.952C633.96 40.016 634.184 40.128 634.312 40.288C633.928 40.768 633.528 41.36 633.112 42.064C632.728 42.768 632.36 43.52 632.008 44.32C631.688 45.088 631.432 45.872 631.24 46.672C631.048 47.472 630.952 48.208 630.952 48.88C630.952 49.52 631.064 50.048 631.288 50.464C631.544 50.88 631.976 51.088 632.584 51.088C633.192 51.088 633.912 50.752 634.743 50.08C635.608 49.376 636.424 48.576 637.192 47.68C636.168 46.752 635.432 45.744 634.984 44.656C634.536 43.536 634.312 42.192 634.312 40.624C634.312 39.952 634.472 39.184 634.792 38.32C635.144 37.456 635.688 36.704 636.424 36.064C637.192 35.424 638.216 35.104 639.496 35.104C640.872 35.104 641.832 35.488 642.376 36.256C642.952 37.024 643.24 37.936 643.24 38.992C643.24 40.176 642.92 41.504 642.28 42.976C641.672 44.448 640.936 45.84 640.072 47.152C640.456 47.344 640.904 47.44 641.416 47.44C641.896 47.44 642.472 47.328 643.144 47.104C643.816 46.88 644.472 46.512 645.112 46C645.752 45.456 646.264 44.736 646.648 43.84L647.512 44.464C646.808 46.096 645.864 47.296 644.68 48.064C643.528 48.8 642.392 49.168 641.272 49.168C640.856 49.168 640.44 49.136 640.023 49.072C639.608 48.976 639.224 48.864 638.872 48.736C637.784 50.016 636.536 51.136 635.128 52.096C633.72 53.056 632.296 53.536 630.855 53.536ZM638.44 46.144C639.208 45.024 639.864 43.824 640.408 42.544C640.952 41.264 641.224 40.08 641.224 38.992C641.224 38.256 641.112 37.728 640.888 37.408C640.664 37.056 640.328 36.88 639.88 36.88C639.272 36.88 638.648 37.312 638.008 38.176C637.368 39.04 637.048 40.128 637.048 41.44C637.048 42.112 637.16 42.928 637.384 43.888C637.64 44.848 637.992 45.6 638.44 46.144ZM650.971 54.688C649.307 54.688 647.931 54.16 646.843 53.104C645.787 52.08 645.259 50.496 645.259 48.352C645.259 46.784 645.563 45.248 646.171 43.744C646.779 42.24 647.595 40.896 648.619 39.712C649.643 38.496 650.779 37.536 652.027 36.832C653.307 36.128 654.603 35.776 655.915 35.776C657.259 35.776 658.219 36.112 658.795 36.784C659.403 37.456 659.707 38.24 659.707 39.136C659.707 40.032 659.483 40.912 659.035 41.776C658.619 42.608 658.043 43.024 657.307 43.024C656.699 43.024 656.203 42.72 655.819 42.112C656.139 41.888 656.475 41.472 656.827 40.864C657.179 40.256 657.355 39.472 657.355 38.512C657.355 38.256 657.291 38.064 657.163 37.936C657.035 37.776 656.795 37.696 656.443 37.696C655.643 37.696 654.795 38.064 653.899 38.8C653.035 39.504 652.219 40.432 651.451 41.584C650.715 42.704 650.107 43.904 649.627 45.184C649.179 46.432 648.955 47.584 648.955 48.64C648.955 49.536 649.179 50.368 649.627 51.136C650.107 51.872 651.019 52.24 652.363 52.24C653.579 52.24 654.843 51.888 656.155 51.184C657.467 50.48 658.699 49.504 659.851 48.256C661.003 46.976 661.931 45.456 662.635 43.696L663.595 44.56C662.827 46.512 661.755 48.256 660.379 49.792C659.035 51.296 657.531 52.48 655.867 53.344C654.235 54.24 652.603 54.688 650.971 54.688ZM664.219 54.256C663.163 54.256 662.251 53.904 661.483 53.2C660.683 52.496 660.283 51.44 660.283 50.032C660.283 48.912 660.539 47.696 661.051 46.384C661.563 45.072 662.267 43.776 663.163 42.496C664.059 41.216 665.083 40.064 666.235 39.04C667.387 37.984 668.619 37.136 669.931 36.496C671.243 35.856 672.555 35.536 673.867 35.536C675.243 35.536 676.411 35.888 677.371 36.592C678.331 37.296 678.811 38.224 678.811 39.376C678.811 40.24 678.507 40.864 677.899 41.248C677.291 41.632 676.571 41.744 675.739 41.584C675.803 41.296 675.851 41.008 675.883 40.72C675.947 40.432 675.979 40.128 675.979 39.808C675.979 39.168 675.851 38.592 675.595 38.08C675.339 37.568 674.795 37.312 673.963 37.312C673.067 37.312 672.155 37.616 671.227 38.224C670.299 38.832 669.403 39.632 668.539 40.624C667.707 41.584 666.955 42.656 666.283 43.84C665.611 44.992 665.083 46.128 664.699 47.248C664.315 48.368 664.123 49.376 664.123 50.272C664.123 51.296 664.491 51.808 665.227 51.808C665.963 51.808 666.779 51.456 667.675 50.752C668.571 50.016 669.467 49.104 670.363 48.016C671.291 46.928 672.171 45.824 673.003 44.704C673.835 43.552 674.555 42.576 675.163 41.776C675.259 41.616 675.387 41.536 675.547 41.536C675.675 41.568 675.915 41.648 676.267 41.776C676.651 41.872 677.003 42.032 677.323 42.256C677.643 42.48 677.803 42.768 677.803 43.12C677.803 43.44 677.659 43.856 677.371 44.368C677.115 44.848 676.795 45.392 676.411 46C676.059 46.576 675.739 47.168 675.451 47.776C675.195 48.352 675.067 48.912 675.067 49.456C675.067 49.872 675.179 50.272 675.403 50.656C675.627 51.008 675.995 51.184 676.507 51.184C677.275 51.184 678.347 50.624 679.723 49.504C681.131 48.352 682.555 46.416 683.995 43.696L684.907 44.608C684.139 46.336 683.211 47.872 682.123 49.216C681.067 50.528 679.947 51.552 678.763 52.288C677.579 53.056 676.379 53.44 675.163 53.44C673.851 53.44 672.875 53.024 672.235 52.192C671.595 51.36 671.243 50.464 671.179 49.504C671.179 49.44 671.179 49.392 671.179 49.36C671.179 49.328 671.179 49.296 671.179 49.264C669.899 50.8 668.715 52.016 667.627 52.912C666.571 53.808 665.435 54.256 664.219 54.256ZM686.987 53.44C685.483 53.44 684.427 52.944 683.819 51.952C683.243 50.928 682.955 49.728 682.955 48.352C682.955 46.784 683.243 44.944 683.819 42.832C684.395 40.72 685.147 38.512 686.075 36.208C687.035 33.872 688.075 31.6 689.195 29.392C690.347 27.152 691.499 25.136 692.651 23.344C693.803 21.552 694.859 20.128 695.819 19.072C696.811 17.984 697.611 17.44 698.219 17.44C698.635 17.44 698.987 17.664 699.275 18.112C699.563 18.528 699.787 19.04 699.947 19.648C700.139 20.224 700.235 20.768 700.235 21.28C700.235 22.144 700.011 23.28 699.563 24.688C699.147 26.064 698.539 27.584 697.739 29.248C696.971 30.912 696.043 32.624 694.955 34.384C693.899 36.112 692.715 37.76 691.403 39.328C690.123 40.896 688.747 42.256 687.275 43.408C687.147 44.208 687.019 45.008 686.891 45.808C686.795 46.576 686.747 47.28 686.747 47.92C686.747 49.072 686.939 49.92 687.323 50.464C687.707 50.976 688.203 51.232 688.811 51.232C689.611 51.232 690.427 50.864 691.259 50.128C692.123 49.36 692.939 48.4 693.707 47.248C694.507 46.064 695.195 44.848 695.771 43.6L696.923 44.224C695.547 47.072 694.011 49.328 692.315 50.992C690.619 52.624 688.843 53.44 686.987 53.44ZM688.139 40.432C689.227 39.248 690.251 37.968 691.211 36.592C692.203 35.184 693.099 33.76 693.899 32.32C694.731 30.88 695.451 29.488 696.059 28.144C696.667 26.8 697.131 25.6 697.451 24.544C697.803 23.456 697.995 22.592 698.027 21.952C698.027 21.92 698.027 21.904 698.027 21.904C698.027 21.872 698.027 21.84 698.027 21.808C697.771 21.808 697.355 22.176 696.779 22.912C696.235 23.616 695.579 24.592 694.811 25.84C694.043 27.088 693.243 28.512 692.411 30.112C691.611 31.712 690.827 33.408 690.059 35.2C689.323 36.96 688.683 38.704 688.139 40.432ZM698.465 53.44C697.057 53.44 696.001 53.024 695.297 52.192C694.593 51.36 694.241 50.352 694.241 49.168C694.241 48.432 694.369 47.504 694.625 46.384C694.881 45.264 695.233 44.096 695.681 42.88C696.161 41.632 696.705 40.464 697.313 39.376C697.921 38.288 698.577 37.408 699.281 36.736C699.985 36.032 700.689 35.68 701.393 35.68C701.777 35.68 702.113 35.808 702.401 36.064C702.689 36.288 702.833 36.624 702.833 37.072C702.833 37.488 702.577 38.112 702.065 38.944C701.585 39.776 701.009 40.736 700.337 41.824C699.697 42.912 699.121 44.048 698.609 45.232C698.129 46.384 697.889 47.488 697.889 48.544C697.889 49.568 698.065 50.256 698.417 50.608C698.801 50.928 699.345 51.088 700.049 51.088C701.137 51.088 702.321 50.544 703.601 49.456C704.881 48.368 706.209 46.464 707.585 43.744L708.305 44.512C707.185 47.328 705.761 49.52 704.033 51.088C702.305 52.656 700.449 53.44 698.465 53.44ZM704.129 31.792C703.521 31.792 702.961 31.648 702.449 31.36C701.969 31.04 701.729 30.56 701.729 29.92C701.729 29.152 702.145 28.496 702.977 27.952C703.809 27.408 704.673 27.136 705.569 27.136C706.145 27.136 706.625 27.264 707.009 27.52C707.425 27.776 707.633 28.24 707.633 28.912C707.633 29.584 707.265 30.24 706.529 30.88C705.793 31.488 704.993 31.792 704.129 31.792ZM706.728 65.44C705.608 65.44 704.728 65.216 704.088 64.768C703.416 64.352 703.08 63.648 703.08 62.656C703.08 61.568 703.432 60.592 704.136 59.728C704.808 58.864 705.72 58.048 706.872 57.28C708.056 56.512 709.352 55.728 710.76 54.928C712.2 54.128 713.64 53.248 715.08 52.288C715.048 51.264 714.728 50.288 714.12 49.36C713.544 48.432 712.52 47.44 711.048 46.384C712.296 46.032 713.352 45.488 714.216 44.752C715.08 43.984 715.736 43.152 716.184 42.256C716.632 41.328 716.856 40.464 716.856 39.664C716.856 39.088 716.712 38.576 716.424 38.128C716.136 37.648 715.624 37.408 714.888 37.408C713.928 37.408 713.032 37.824 712.2 38.656C711.368 39.488 710.568 40.56 709.8 41.872C709.064 43.184 708.344 44.592 707.64 46.096L706.728 45.328C707.432 43.44 708.168 41.728 708.936 40.192C709.736 38.624 710.664 37.376 711.72 36.448C712.808 35.52 714.104 35.056 715.608 35.056C716.92 35.056 718.04 35.424 718.968 36.16C719.896 36.896 720.36 37.968 720.36 39.376C720.36 40.368 720.104 41.344 719.592 42.304C719.112 43.232 718.456 44.096 717.624 44.896C716.824 45.664 715.928 46.304 714.936 46.816C715.64 47.36 716.248 47.984 716.76 48.688C717.304 49.392 717.736 50.08 718.056 50.752C719.208 49.856 720.248 48.864 721.176 47.776C722.104 46.688 722.84 45.44 723.384 44.032L724.008 44.8C723.528 46.208 722.808 47.536 721.848 48.784C720.92 50 719.816 51.072 718.536 52C718.6 52.224 718.648 52.448 718.68 52.672C718.712 52.928 718.728 53.232 718.728 53.584C718.728 54.992 718.408 56.384 717.768 57.76C717.128 59.168 716.232 60.448 715.08 61.6C713.96 62.752 712.68 63.68 711.24 64.384C709.832 65.088 708.328 65.44 706.728 65.44ZM706.056 63.616C706.632 63.616 707.368 63.392 708.264 62.944C709.192 62.528 710.12 61.904 711.048 61.072C712.008 60.272 712.84 59.296 713.544 58.144C714.28 56.992 714.76 55.68 714.984 54.208C713.8 54.976 712.6 55.696 711.384 56.368C710.168 57.04 709.064 57.696 708.072 58.336C707.08 59.008 706.28 59.664 705.672 60.304C705.064 60.944 704.76 61.616 704.76 62.32C704.76 62.768 704.888 63.088 705.144 63.28C705.4 63.504 705.704 63.616 706.056 63.616ZM724.922 54.256C723.866 54.256 722.954 53.904 722.186 53.2C721.386 52.496 720.986 51.44 720.986 50.032C720.986 48.912 721.242 47.696 721.754 46.384C722.266 45.072 722.97 43.776 723.866 42.496C724.762 41.216 725.786 40.064 726.938 39.04C728.09 37.984 729.322 37.136 730.634 36.496C731.946 35.856 733.258 35.536 734.57 35.536C735.946 35.536 737.114 35.888 738.074 36.592C739.034 37.296 739.514 38.224 739.514 39.376C739.514 40.24 739.21 40.864 738.602 41.248C737.994 41.632 737.274 41.744 736.442 41.584C736.506 41.296 736.554 41.008 736.586 40.72C736.65 40.432 736.682 40.128 736.682 39.808C736.682 39.168 736.554 38.592 736.298 38.08C736.042 37.568 735.498 37.312 734.666 37.312C733.77 37.312 732.858 37.616 731.93 38.224C731.002 38.832 730.106 39.632 729.242 40.624C728.41 41.584 727.658 42.656 726.986 43.84C726.314 44.992 725.786 46.128 725.402 47.248C725.018 48.368 724.826 49.376 724.826 50.272C724.826 51.296 725.194 51.808 725.93 51.808C726.666 51.808 727.482 51.456 728.378 50.752C729.274 50.016 730.17 49.104 731.066 48.016C731.994 46.928 732.874 45.824 733.706 44.704C734.538 43.552 735.258 42.576 735.866 41.776C735.962 41.616 736.09 41.536 736.25 41.536C736.378 41.568 736.618 41.648 736.97 41.776C737.354 41.872 737.706 42.032 738.026 42.256C738.346 42.48 738.506 42.768 738.506 43.12C738.506 43.44 738.362 43.856 738.074 44.368C737.818 44.848 737.498 45.392 737.114 46C736.762 46.576 736.442 47.168 736.154 47.776C735.898 48.352 735.77 48.912 735.77 49.456C735.77 49.872 735.882 50.272 736.106 50.656C736.33 51.008 736.698 51.184 737.21 51.184C737.978 51.184 739.05 50.624 740.426 49.504C741.834 48.352 743.258 46.416 744.698 43.696L745.61 44.608C744.842 46.336 743.914 47.872 742.826 49.216C741.77 50.528 740.65 51.552 739.466 52.288C738.282 53.056 737.082 53.44 735.866 53.44C734.554 53.44 733.578 53.024 732.938 52.192C732.298 51.36 731.946 50.464 731.882 49.504C731.882 49.44 731.882 49.392 731.882 49.36C731.882 49.328 731.882 49.296 731.882 49.264C730.602 50.8 729.418 52.016 728.33 52.912C727.274 53.808 726.138 54.256 724.922 54.256ZM748.987 54.688C747.323 54.688 745.947 54.16 744.859 53.104C743.803 52.08 743.274 50.496 743.274 48.352C743.274 46.784 743.579 45.248 744.187 43.744C744.795 42.24 745.611 40.896 746.635 39.712C747.659 38.496 748.795 37.536 750.043 36.832C751.323 36.128 752.619 35.776 753.931 35.776C755.275 35.776 756.235 36.112 756.811 36.784C757.419 37.456 757.723 38.24 757.723 39.136C757.723 40.032 757.499 40.912 757.051 41.776C756.635 42.608 756.059 43.024 755.323 43.024C754.715 43.024 754.219 42.72 753.835 42.112C754.155 41.888 754.491 41.472 754.843 40.864C755.195 40.256 755.371 39.472 755.371 38.512C755.371 38.256 755.307 38.064 755.179 37.936C755.051 37.776 754.811 37.696 754.459 37.696C753.659 37.696 752.811 38.064 751.915 38.8C751.051 39.504 750.235 40.432 749.467 41.584C748.731 42.704 748.123 43.904 747.643 45.184C747.195 46.432 746.971 47.584 746.971 48.64C746.971 49.536 747.195 50.368 747.643 51.136C748.123 51.872 749.035 52.24 750.379 52.24C751.595 52.24 752.859 51.888 754.171 51.184C755.483 50.48 756.715 49.504 757.867 48.256C759.019 46.976 759.947 45.456 760.651 43.696L761.611 44.56C760.843 46.512 759.771 48.256 758.395 49.792C757.051 51.296 755.547 52.48 753.883 53.344C752.251 54.24 750.619 54.688 748.987 54.688ZM752.635 63.184C751.675 63.184 750.907 62.96 750.331 62.512C749.755 62.096 749.467 61.664 749.467 61.216C749.467 60.928 749.595 60.592 749.851 60.208C750.107 59.856 750.491 59.504 751.003 59.152C751.259 59.952 751.547 60.512 751.867 60.832C752.219 61.152 752.571 61.312 752.923 61.312C753.467 61.312 754.027 61.072 754.603 60.592C755.211 60.144 755.723 59.6 756.139 58.96C756.587 58.352 756.811 57.808 756.811 57.328C756.811 57.072 756.731 56.88 756.571 56.752C756.443 56.624 756.267 56.56 756.043 56.56C755.659 56.56 755.227 56.704 754.747 56.992C754.267 57.28 753.803 57.568 753.355 57.856C752.907 58.176 752.539 58.336 752.251 58.336C751.963 58.336 751.723 58.192 751.531 57.904C751.339 57.616 751.243 57.36 751.243 57.136C751.243 57.072 751.387 56.832 751.675 56.416C751.963 56 752.331 55.488 752.779 54.88C753.227 54.304 753.675 53.744 754.123 53.2C754.571 52.656 754.955 52.256 755.275 52H756.043L753.787 55.6C754.043 55.504 754.411 55.376 754.891 55.216C755.371 55.088 755.867 55.024 756.379 55.024C757.115 55.024 757.723 55.216 758.203 55.6C758.715 56.016 758.971 56.624 758.971 57.424C758.971 58.288 758.667 59.152 758.059 60.016C757.483 60.912 756.715 61.664 755.755 62.272C754.795 62.88 753.755 63.184 752.635 63.184ZM762.235 54.256C761.179 54.256 760.267 53.904 759.499 53.2C758.699 52.496 758.299 51.44 758.299 50.032C758.299 48.912 758.555 47.696 759.067 46.384C759.579 45.072 760.283 43.776 761.179 42.496C762.075 41.216 763.099 40.064 764.251 39.04C765.403 37.984 766.635 37.136 767.947 36.496C769.259 35.856 770.571 35.536 771.883 35.536C773.259 35.536 774.427 35.888 775.387 36.592C776.347 37.296 776.827 38.224 776.827 39.376C776.827 40.24 776.523 40.864 775.915 41.248C775.307 41.632 774.587 41.744 773.755 41.584C773.819 41.296 773.867 41.008 773.899 40.72C773.963 40.432 773.995 40.128 773.995 39.808C773.995 39.168 773.867 38.592 773.611 38.08C773.355 37.568 772.811 37.312 771.979 37.312C771.083 37.312 770.171 37.616 769.243 38.224C768.315 38.832 767.419 39.632 766.555 40.624C765.723 41.584 764.971 42.656 764.299 43.84C763.627 44.992 763.099 46.128 762.715 47.248C762.331 48.368 762.139 49.376 762.139 50.272C762.139 51.296 762.507 51.808 763.243 51.808C763.979 51.808 764.795 51.456 765.691 50.752C766.587 50.016 767.483 49.104 768.379 48.016C769.307 46.928 770.187 45.824 771.019 44.704C771.851 43.552 772.571 42.576 773.179 41.776C773.275 41.616 773.403 41.536 773.563 41.536C773.691 41.568 773.931 41.648 774.283 41.776C774.667 41.872 775.019 42.032 775.339 42.256C775.659 42.48 775.819 42.768 775.819 43.12C775.819 43.44 775.675 43.856 775.387 44.368C775.131 44.848 774.811 45.392 774.427 46C774.075 46.576 773.755 47.168 773.467 47.776C773.211 48.352 773.083 48.912 773.083 49.456C773.083 49.872 773.195 50.272 773.419 50.656C773.643 51.008 774.011 51.184 774.523 51.184C775.291 51.184 776.363 50.624 777.739 49.504C779.147 48.352 780.571 46.416 782.011 43.696L782.923 44.608C782.155 46.336 781.227 47.872 780.139 49.216C779.083 50.528 777.963 51.552 776.779 52.288C775.595 53.056 774.395 53.44 773.179 53.44C771.867 53.44 770.891 53.024 770.251 52.192C769.611 51.36 769.259 50.464 769.195 49.504C769.195 49.44 769.195 49.392 769.195 49.36C769.195 49.328 769.195 49.296 769.195 49.264C767.915 50.8 766.731 52.016 765.643 52.912C764.587 53.808 763.451 54.256 762.235 54.256ZM778.891 32.944C777.995 32.944 777.067 32.752 776.107 32.368C775.147 31.984 774.187 31.6 773.227 31.216C772.299 30.832 771.419 30.64 770.587 30.64C770.043 30.64 769.515 30.688 769.003 30.784C768.523 30.848 768.011 31.008 767.467 31.264C767.851 30.304 768.411 29.6 769.147 29.152C769.883 28.672 770.763 28.432 771.787 28.432C772.683 28.432 773.595 28.624 774.523 29.008C775.483 29.392 776.427 29.776 777.355 30.16C778.283 30.544 779.195 30.736 780.091 30.736C781.051 30.736 781.995 30.576 782.923 30.256C782.475 31.12 781.931 31.792 781.291 32.272C780.683 32.72 779.883 32.944 778.891 32.944ZM784.043 53.536C782.603 53.536 781.611 53.056 781.067 52.096C780.555 51.168 780.299 50.144 780.299 49.024C780.299 48 780.459 46.96 780.779 45.904C781.099 44.816 781.531 43.808 782.075 42.88C782.651 41.952 783.275 41.216 783.947 40.672C784.651 40.096 785.355 39.808 786.059 39.808C786.283 39.808 786.539 39.856 786.827 39.952C787.147 40.016 787.371 40.128 787.499 40.288C787.115 40.768 786.715 41.36 786.299 42.064C785.915 42.768 785.547 43.52 785.195 44.32C784.875 45.088 784.619 45.872 784.427 46.672C784.235 47.472 784.139 48.208 784.139 48.88C784.139 49.52 784.251 50.048 784.475 50.464C784.731 50.88 785.163 51.088 785.771 51.088C786.379 51.088 787.099 50.752 787.931 50.08C788.795 49.376 789.611 48.576 790.379 47.68C789.355 46.752 788.619 45.744 788.171 44.656C787.723 43.536 787.499 42.192 787.499 40.624C787.499 39.952 787.659 39.184 787.979 38.32C788.331 37.456 788.875 36.704 789.611 36.064C790.379 35.424 791.403 35.104 792.683 35.104C794.059 35.104 795.019 35.488 795.563 36.256C796.139 37.024 796.427 37.936 796.427 38.992C796.427 40.176 796.107 41.504 795.467 42.976C794.859 44.448 794.123 45.84 793.259 47.152C793.643 47.344 794.091 47.44 794.603 47.44C795.083 47.44 795.659 47.328 796.331 47.104C797.003 46.88 797.659 46.512 798.299 46C798.939 45.456 799.451 44.736 799.835 43.84L800.699 44.464C799.995 46.096 799.051 47.296 797.867 48.064C796.715 48.8 795.579 49.168 794.459 49.168C794.043 49.168 793.627 49.136 793.211 49.072C792.795 48.976 792.411 48.864 792.059 48.736C790.971 50.016 789.723 51.136 788.315 52.096C786.907 53.056 785.483 53.536 784.043 53.536ZM791.627 46.144C792.395 45.024 793.051 43.824 793.595 42.544C794.139 41.264 794.411 40.08 794.411 38.992C794.411 38.256 794.299 37.728 794.075 37.408C793.851 37.056 793.515 36.88 793.067 36.88C792.459 36.88 791.835 37.312 791.195 38.176C790.555 39.04 790.235 40.128 790.235 41.44C790.235 42.112 790.347 42.928 790.571 43.888C790.827 44.848 791.179 45.6 791.627 46.144Z" fill="white"/>
<defs>
<filter id="filter0_i_146_12" x="0" y="0" width="1349" height="80.0259" filterUnits="userSpaceOnUse" color-interpolation-filters="sRGB">
<feFlood flood-opacity="0" result="BackgroundImageFix"/>
<feBlend mode="normal" in="SourceGraphic" in2="BackgroundImageFix" result="shape"/>
<feColorMatrix in="SourceAlpha" type="matrix" values="0 0 0 0 0 0 0 0 0 0 0 0 0 0 0 0 0 0 127 0" result="hardAlpha"/>
<feOffset dy="4"/>
<feGaussianBlur stdDeviation="2"/>
<feComposite in2="hardAlpha" operator="arithmetic" k2="-1" k3="1"/>
<feColorMatrix type="matrix" values="0 0 0 0 0 0 0 0 0 0 0 0 0 0 0 0 0 0 0.25 0"/>
<feBlend mode="normal" in2="shape" result="effect1_innerShadow_146_12"/>
</filter>
</defs>
</svg>
