<svg width="1349" height="77" viewBox="0 0 1349 77" fill="none" xmlns="http://www.w3.org/2000/svg">
<g filter="url(#filter0_i_144_6)">
<rect width="1349" height="76.0258" fill="#FBB739"/>
</g>
<path d="M578.616 55.176C577.656 55.176 576.744 54.92 575.88 54.408C575.048 53.896 574.632 53.24 574.632 52.44C574.632 52.024 574.696 51.576 574.824 51.096C574.984 50.616 575.128 50.168 575.256 49.752C576.248 46.712 577.176 43.88 578.04 41.256C578.904 38.6 579.768 36.056 580.632 33.624C581.528 31.16 582.456 28.696 583.416 26.232C584.408 23.768 585.512 21.192 586.728 18.504C585.512 18.76 584.472 19.096 583.608 19.512C582.744 19.896 582.04 20.248 581.496 20.568C580.952 20.856 580.552 21 580.296 21C580.136 21 579.896 20.888 579.576 20.664C579.288 20.44 579.032 20.184 578.808 19.896C578.584 19.608 578.472 19.352 578.472 19.128C579.368 18.744 580.408 18.344 581.592 17.928C582.808 17.512 584.12 17.16 585.528 16.872C586.936 16.584 588.344 16.44 589.752 16.44C591.256 16.44 592.792 16.648 594.36 17.064C595.928 17.448 597.368 18.04 598.68 18.84C600.024 19.608 601.096 20.584 601.896 21.768C602.728 22.92 603.144 24.28 603.144 25.848C603.144 27.544 602.76 29 601.992 30.216C601.224 31.432 600.2 32.456 598.92 33.288C597.672 34.12 596.312 34.792 594.84 35.304C593.368 35.816 591.896 36.2 590.424 36.456C588.984 36.712 587.688 36.888 586.536 36.984C585.384 37.08 584.52 37.128 583.944 37.128H583.656C582.76 40.296 581.88 43.464 581.016 46.632C580.152 49.768 579.352 52.616 578.616 55.176ZM584.088 35.64C585.88 35.512 587.672 35.208 589.464 34.728C591.256 34.248 592.872 33.592 594.312 32.76C595.784 31.896 596.952 30.824 597.816 29.544C598.712 28.264 599.16 26.776 599.16 25.08C599.16 23.48 598.728 22.184 597.864 21.192C597.032 20.2 595.944 19.448 594.6 18.936C593.288 18.424 591.896 18.152 590.424 18.12C589.272 20.36 588.168 23.016 587.112 26.088C586.056 29.128 585.048 32.312 584.088 35.64ZM602.574 52.44C601.166 52.44 600.11 52.024 599.406 51.192C598.702 50.36 598.35 49.352 598.35 48.168C598.35 47.432 598.478 46.504 598.734 45.384C598.99 44.264 599.342 43.096 599.79 41.88C600.27 40.632 600.814 39.464 601.422 38.376C602.03 37.288 602.686 36.408 603.39 35.736C604.094 35.032 604.798 34.68 605.502 34.68C605.886 34.68 606.222 34.808 606.51 35.064C606.798 35.288 606.942 35.624 606.942 36.072C606.942 36.488 606.686 37.112 606.174 37.944C605.694 38.776 605.118 39.736 604.446 40.824C603.806 41.912 603.23 43.048 602.718 44.232C602.238 45.384 601.998 46.488 601.998 47.544C601.998 48.568 602.174 49.256 602.526 49.608C602.91 49.928 603.454 50.088 604.158 50.088C605.246 50.088 606.43 49.544 607.71 48.456C608.99 47.368 610.318 45.464 611.694 42.744L612.414 43.512C611.294 46.328 609.87 48.52 608.142 50.088C606.414 51.656 604.558 52.44 602.574 52.44ZM608.238 30.792C607.63 30.792 607.07 30.648 606.558 30.36C606.078 30.04 605.838 29.56 605.838 28.92C605.838 28.152 606.254 27.496 607.086 26.952C607.918 26.408 608.782 26.136 609.678 26.136C610.254 26.136 610.734 26.264 611.118 26.52C611.534 26.776 611.742 27.24 611.742 27.912C611.742 28.584 611.374 29.24 610.638 29.88C609.902 30.488 609.102 30.792 608.238 30.792ZM610.837 64.44C609.717 64.44 608.837 64.216 608.197 63.768C607.525 63.352 607.189 62.648 607.189 61.656C607.189 60.568 607.541 59.592 608.245 58.728C608.917 57.864 609.829 57.048 610.981 56.28C612.165 55.512 613.461 54.728 614.869 53.928C616.309 53.128 617.749 52.248 619.189 51.288C619.157 50.264 618.837 49.288 618.229 48.36C617.653 47.432 616.629 46.44 615.157 45.384C616.405 45.032 617.461 44.488 618.325 43.752C619.189 42.984 619.845 42.152 620.293 41.256C620.741 40.328 620.965 39.464 620.965 38.664C620.965 38.088 620.821 37.576 620.533 37.128C620.245 36.648 619.733 36.408 618.997 36.408C618.037 36.408 617.141 36.824 616.309 37.656C615.477 38.488 614.677 39.56 613.909 40.872C613.173 42.184 612.453 43.592 611.749 45.096L610.837 44.328C611.541 42.44 612.277 40.728 613.045 39.192C613.845 37.624 614.773 36.376 615.829 35.448C616.917 34.52 618.213 34.056 619.717 34.056C621.029 34.056 622.149 34.424 623.077 35.16C624.005 35.896 624.469 36.968 624.469 38.376C624.469 39.368 624.213 40.344 623.701 41.304C623.221 42.232 622.565 43.096 621.733 43.896C620.933 44.664 620.037 45.304 619.045 45.816C619.749 46.36 620.357 46.984 620.869 47.688C621.413 48.392 621.845 49.08 622.165 49.752C623.317 48.856 624.357 47.864 625.285 46.776C626.213 45.688 626.949 44.44 627.493 43.032L628.117 43.8C627.637 45.208 626.917 46.536 625.957 47.784C625.029 49 623.925 50.072 622.645 51C622.709 51.224 622.757 51.448 622.789 51.672C622.821 51.928 622.837 52.232 622.837 52.584C622.837 53.992 622.517 55.384 621.877 56.76C621.237 58.168 620.341 59.448 619.189 60.6C618.069 61.752 616.789 62.68 615.349 63.384C613.941 64.088 612.437 64.44 610.837 64.44ZM610.165 62.616C610.741 62.616 611.477 62.392 612.373 61.944C613.301 61.528 614.229 60.904 615.157 60.072C616.117 59.272 616.949 58.296 617.653 57.144C618.389 55.992 618.869 54.68 619.093 53.208C617.909 53.976 616.709 54.696 615.493 55.368C614.277 56.04 613.173 56.696 612.181 57.336C611.189 58.008 610.389 58.664 609.781 59.304C609.173 59.944 608.869 60.616 608.869 61.32C608.869 61.768 608.997 62.088 609.253 62.28C609.509 62.504 609.813 62.616 610.165 62.616ZM626.728 64.44C625.608 64.44 624.728 64.216 624.088 63.768C623.416 63.352 623.08 62.648 623.08 61.656C623.08 60.568 623.432 59.592 624.136 58.728C624.808 57.864 625.72 57.048 626.872 56.28C628.056 55.512 629.352 54.728 630.76 53.928C632.2 53.128 633.64 52.248 635.08 51.288C635.048 50.264 634.728 49.288 634.12 48.36C633.544 47.432 632.52 46.44 631.048 45.384C632.296 45.032 633.352 44.488 634.216 43.752C635.08 42.984 635.736 42.152 636.184 41.256C636.632 40.328 636.856 39.464 636.856 38.664C636.856 38.088 636.712 37.576 636.424 37.128C636.136 36.648 635.624 36.408 634.888 36.408C633.928 36.408 633.032 36.824 632.2 37.656C631.368 38.488 630.568 39.56 629.8 40.872C629.064 42.184 628.344 43.592 627.64 45.096L626.728 44.328C627.432 42.44 628.168 40.728 628.936 39.192C629.736 37.624 630.664 36.376 631.72 35.448C632.808 34.52 634.104 34.056 635.608 34.056C636.92 34.056 638.04 34.424 638.968 35.16C639.896 35.896 640.36 36.968 640.36 38.376C640.36 39.368 640.104 40.344 639.592 41.304C639.112 42.232 638.456 43.096 637.624 43.896C636.824 44.664 635.928 45.304 634.936 45.816C635.64 46.36 636.248 46.984 636.76 47.688C637.304 48.392 637.736 49.08 638.056 49.752C639.208 48.856 640.248 47.864 641.176 46.776C642.104 45.688 642.84 44.44 643.384 43.032L644.008 43.8C643.528 45.208 642.808 46.536 641.848 47.784C640.92 49 639.816 50.072 638.536 51C638.6 51.224 638.648 51.448 638.68 51.672C638.712 51.928 638.728 52.232 638.728 52.584C638.728 53.992 638.408 55.384 637.768 56.76C637.128 58.168 636.232 59.448 635.08 60.6C633.96 61.752 632.68 62.68 631.24 63.384C629.832 64.088 628.328 64.44 626.728 64.44ZM626.056 62.616C626.632 62.616 627.368 62.392 628.264 61.944C629.192 61.528 630.12 60.904 631.048 60.072C632.008 59.272 632.84 58.296 633.544 57.144C634.28 55.992 634.76 54.68 634.984 53.208C633.8 53.976 632.6 54.696 631.384 55.368C630.168 56.04 629.064 56.696 628.072 57.336C627.08 58.008 626.28 58.664 625.672 59.304C625.064 59.944 624.76 60.616 624.76 61.32C624.76 61.768 624.888 62.088 625.144 62.28C625.4 62.504 625.704 62.616 626.056 62.616ZM644.922 53.256C643.866 53.256 642.954 52.904 642.186 52.2C641.386 51.496 640.986 50.44 640.986 49.032C640.986 47.912 641.242 46.696 641.754 45.384C642.266 44.072 642.97 42.776 643.866 41.496C644.762 40.216 645.786 39.064 646.938 38.04C648.09 36.984 649.322 36.136 650.634 35.496C651.946 34.856 653.258 34.536 654.57 34.536C655.946 34.536 657.114 34.888 658.074 35.592C659.034 36.296 659.514 37.224 659.514 38.376C659.514 39.24 659.21 39.864 658.602 40.248C657.994 40.632 657.274 40.744 656.442 40.584C656.506 40.296 656.554 40.008 656.586 39.72C656.65 39.432 656.682 39.128 656.682 38.808C656.682 38.168 656.554 37.592 656.298 37.08C656.042 36.568 655.498 36.312 654.666 36.312C653.77 36.312 652.858 36.616 651.93 37.224C651.002 37.832 650.106 38.632 649.242 39.624C648.41 40.584 647.658 41.656 646.986 42.84C646.314 43.992 645.786 45.128 645.402 46.248C645.018 47.368 644.826 48.376 644.826 49.272C644.826 50.296 645.194 50.808 645.93 50.808C646.666 50.808 647.482 50.456 648.378 49.752C649.274 49.016 650.17 48.104 651.066 47.016C651.994 45.928 652.874 44.824 653.706 43.704C654.538 42.552 655.258 41.576 655.866 40.776C655.962 40.616 656.09 40.536 656.25 40.536C656.378 40.568 656.618 40.648 656.97 40.776C657.354 40.872 657.706 41.032 658.026 41.256C658.346 41.48 658.506 41.768 658.506 42.12C658.506 42.44 658.362 42.856 658.074 43.368C657.818 43.848 657.498 44.392 657.114 45C656.762 45.576 656.442 46.168 656.154 46.776C655.898 47.352 655.77 47.912 655.77 48.456C655.77 48.872 655.882 49.272 656.106 49.656C656.33 50.008 656.698 50.184 657.21 50.184C657.978 50.184 659.05 49.624 660.426 48.504C661.834 47.352 663.258 45.416 664.698 42.696L665.61 43.608C664.842 45.336 663.914 46.872 662.826 48.216C661.77 49.528 660.65 50.552 659.466 51.288C658.282 52.056 657.082 52.44 655.866 52.44C654.554 52.44 653.578 52.024 652.938 51.192C652.298 50.36 651.946 49.464 651.882 48.504C651.882 48.44 651.882 48.392 651.882 48.36C651.882 48.328 651.882 48.296 651.882 48.264C650.602 49.8 649.418 51.016 648.33 51.912C647.274 52.808 646.138 53.256 644.922 53.256ZM669.179 53.448C667.579 53.448 666.283 53.112 665.291 52.44C664.331 51.8 663.642 50.984 663.226 49.992C662.81 48.968 662.602 47.928 662.602 46.872C662.602 45.944 662.73 45.224 662.986 44.712C663.242 44.2 663.562 43.832 663.947 43.608C664.331 43.352 664.683 43.16 665.003 43.032C665.355 42.904 665.611 42.76 665.771 42.6C666.571 41.768 667.387 40.808 668.219 39.72C669.083 38.6 669.819 37.368 670.427 36.024V35.544C670.427 34.264 670.635 33.368 671.051 32.856C671.499 32.312 672.011 32.04 672.587 32.04C672.971 32.04 673.243 32.136 673.403 32.328C673.595 32.52 673.707 32.744 673.739 33C673.739 33.192 673.691 33.416 673.595 33.672C673.531 33.928 673.499 34.28 673.499 34.728C673.499 35.688 673.723 36.792 674.171 38.04C674.651 39.256 675.115 40.552 675.562 41.928C676.043 43.304 676.283 44.712 676.283 46.152C676.283 46.536 676.267 46.888 676.234 47.208C676.203 47.528 676.155 47.832 676.091 48.12C677.083 47.864 678.059 47.32 679.019 46.488C679.979 45.624 680.891 44.36 681.755 42.696L682.331 43.128C681.723 44.952 680.843 46.424 679.691 47.544C678.539 48.632 677.195 49.304 675.659 49.56C675.147 50.872 674.299 51.848 673.115 52.488C671.963 53.128 670.651 53.448 669.179 53.448ZM668.843 51.336C669.483 51.336 670.075 51.176 670.618 50.856C671.163 50.536 671.595 50.072 671.915 49.464C670.603 49.176 669.419 48.664 668.363 47.928C667.307 47.192 666.491 46.44 665.915 45.672C665.467 45.768 665.243 46.2 665.243 46.968C665.243 48.024 665.547 49.016 666.155 49.944C666.763 50.872 667.659 51.336 668.843 51.336ZM672.299 48.024C672.363 47.8 672.395 47.544 672.395 47.256C672.427 46.936 672.443 46.696 672.443 46.536C672.411 45.096 672.219 43.672 671.867 42.264C671.515 40.856 671.163 39.416 670.811 37.944C670.235 38.936 669.563 40.008 668.795 41.16C668.027 42.312 667.307 43.24 666.635 43.944C667.147 44.808 667.899 45.624 668.891 46.392C669.883 47.16 671.019 47.704 672.299 48.024ZM702.027 55.176C700.907 55.176 699.835 55.016 698.811 54.696C697.819 54.408 696.955 53.768 696.219 52.776C696.315 52.008 696.539 50.888 696.891 49.416C697.275 47.944 697.739 46.28 698.283 44.424C698.827 42.536 699.403 40.6 700.011 38.616C700.619 36.632 701.211 34.744 701.787 32.952C702.395 31.128 702.923 29.544 703.371 28.2C703.851 26.824 704.203 25.832 704.427 25.224C704.523 24.968 704.683 24.584 704.907 24.072C705.131 23.56 705.419 23.032 705.771 22.488C706.123 21.944 706.523 21.496 706.971 21.144C707.451 20.76 707.963 20.568 708.507 20.568C709.051 20.568 709.659 20.792 710.331 21.24C709.339 23.48 708.331 25.976 707.307 28.728C706.315 31.448 705.355 34.264 704.427 37.176C703.531 40.056 702.699 42.872 701.931 45.624C701.195 48.344 700.587 50.84 700.107 53.112C700.363 53.208 700.715 53.272 701.163 53.304C701.643 53.368 702.091 53.4 702.507 53.4C704.587 53.4 706.571 52.888 708.459 51.864C710.347 50.872 712.075 49.544 713.643 47.88C715.243 46.184 716.635 44.296 717.819 42.216C719.003 40.104 719.915 37.944 720.555 35.736C721.195 33.528 721.515 31.416 721.515 29.4C721.515 26.808 721.067 24.712 720.171 23.112C719.307 21.48 718.107 20.296 716.571 19.56C715.035 18.792 713.275 18.408 711.291 18.408C709.211 18.408 707.339 18.792 705.675 19.56C704.011 20.296 702.699 21.32 701.739 22.632C700.811 23.912 700.347 25.384 700.347 27.048C700.347 27.4 700.379 27.784 700.443 28.2C700.507 28.584 700.619 28.968 700.779 29.352C699.403 29.352 698.411 29.064 697.803 28.488C697.227 27.88 696.939 27.144 696.939 26.28C696.939 25.16 697.339 24.024 698.139 22.872C698.971 21.72 700.107 20.664 701.547 19.704C703.019 18.712 704.715 17.928 706.635 17.352C708.555 16.744 710.635 16.44 712.875 16.44C716.011 16.44 718.523 17.048 720.411 18.264C722.299 19.448 723.659 21.064 724.491 23.112C725.355 25.128 725.787 27.384 725.787 29.88C725.787 32.632 725.339 35.272 724.443 37.8C723.579 40.296 722.363 42.6 720.795 44.712C719.259 46.824 717.467 48.664 715.419 50.232C713.403 51.8 711.243 53.016 708.939 53.88C706.667 54.744 704.363 55.176 702.027 55.176ZM728.324 52.536C726.884 52.536 725.892 52.056 725.348 51.096C724.836 50.168 724.58 49.144 724.58 48.024C724.58 47 724.74 45.96 725.06 44.904C725.38 43.816 725.812 42.808 726.356 41.88C726.932 40.952 727.556 40.216 728.228 39.672C728.932 39.096 729.636 38.808 730.34 38.808C730.564 38.808 730.82 38.856 731.108 38.952C731.428 39.016 731.652 39.128 731.78 39.288C731.396 39.768 730.996 40.36 730.58 41.064C730.196 41.768 729.828 42.52 729.476 43.32C729.156 44.088 728.9 44.872 728.708 45.672C728.516 46.472 728.42 47.208 728.42 47.88C728.42 48.52 728.532 49.048 728.756 49.464C729.012 49.88 729.444 50.088 730.052 50.088C730.66 50.088 731.38 49.752 732.212 49.08C733.076 48.376 733.892 47.576 734.66 46.68C733.636 45.752 732.9 44.744 732.452 43.656C732.004 42.536 731.78 41.192 731.78 39.624C731.78 38.952 731.94 38.184 732.26 37.32C732.612 36.456 733.156 35.704 733.892 35.064C734.66 34.424 735.684 34.104 736.964 34.104C738.34 34.104 739.3 34.488 739.844 35.256C740.42 36.024 740.708 36.936 740.708 37.992C740.708 39.176 740.388 40.504 739.748 41.976C739.14 43.448 738.404 44.84 737.54 46.152C737.924 46.344 738.372 46.44 738.884 46.44C739.364 46.44 739.94 46.328 740.612 46.104C741.284 45.88 741.94 45.512 742.58 45C743.22 44.456 743.732 43.736 744.116 42.84L744.98 43.464C744.276 45.096 743.332 46.296 742.148 47.064C740.996 47.8 739.86 48.168 738.74 48.168C738.324 48.168 737.908 48.136 737.492 48.072C737.076 47.976 736.692 47.864 736.34 47.736C735.252 49.016 734.004 50.136 732.596 51.096C731.188 52.056 729.764 52.536 728.324 52.536ZM735.908 45.144C736.676 44.024 737.332 42.824 737.876 41.544C738.42 40.264 738.692 39.08 738.692 37.992C738.692 37.256 738.58 36.728 738.356 36.408C738.132 36.056 737.796 35.88 737.348 35.88C736.74 35.88 736.116 36.312 735.476 37.176C734.836 38.04 734.516 39.128 734.516 40.44C734.516 41.112 734.628 41.928 734.852 42.888C735.108 43.848 735.46 44.6 735.908 45.144ZM748.44 53.688C746.776 53.688 745.4 53.16 744.312 52.104C743.256 51.08 742.728 49.496 742.728 47.352C742.728 45.784 743.032 44.248 743.64 42.744C744.248 41.24 745.064 39.896 746.088 38.712C747.112 37.496 748.248 36.536 749.496 35.832C750.776 35.128 752.072 34.776 753.384 34.776C754.728 34.776 755.688 35.112 756.264 35.784C756.872 36.456 757.176 37.24 757.176 38.136C757.176 39.032 756.952 39.912 756.504 40.776C756.088 41.608 755.512 42.024 754.776 42.024C754.168 42.024 753.672 41.72 753.288 41.112C753.608 40.888 753.944 40.472 754.296 39.864C754.648 39.256 754.824 38.472 754.824 37.512C754.824 37.256 754.76 37.064 754.632 36.936C754.504 36.776 754.264 36.696 753.912 36.696C753.112 36.696 752.264 37.064 751.368 37.8C750.504 38.504 749.688 39.432 748.92 40.584C748.184 41.704 747.576 42.904 747.096 44.184C746.648 45.432 746.424 46.584 746.424 47.64C746.424 48.536 746.648 49.368 747.096 50.136C747.576 50.872 748.488 51.24 749.832 51.24C751.048 51.24 752.312 50.888 753.624 50.184C754.936 49.48 756.168 48.504 757.32 47.256C758.472 45.976 759.4 44.456 760.104 42.696L761.064 43.56C760.296 45.512 759.224 47.256 757.848 48.792C756.504 50.296 755 51.48 753.336 52.344C751.704 53.24 750.072 53.688 748.44 53.688ZM764.568 53.112C762.52 53.112 760.936 52.552 759.816 51.432C758.728 50.344 758.184 48.968 758.184 47.304C758.184 45.896 758.536 44.408 759.24 42.84C759.976 41.24 760.952 39.752 762.168 38.376C763.384 36.968 764.728 35.832 766.2 34.968C767.672 34.104 769.144 33.672 770.616 33.672C771.448 33.672 772.232 33.896 772.968 34.344C773.736 34.76 774.12 35.608 774.12 36.888C774.12 38.104 773.768 39.24 773.064 40.296C772.36 41.352 771.416 42.296 770.232 43.128C769.048 43.96 767.736 44.648 766.296 45.192C764.888 45.704 763.464 46.04 762.024 46.2C761.992 46.328 761.96 46.472 761.928 46.632C761.928 46.76 761.928 46.984 761.928 47.304C761.928 47.464 761.944 47.752 761.976 48.168C762.04 48.552 762.184 48.968 762.408 49.416C762.632 49.864 763 50.248 763.512 50.568C764.024 50.888 764.728 51.048 765.624 51.048C766.968 51.048 768.312 50.68 769.656 49.944C771.032 49.176 772.312 48.168 773.496 46.92C774.712 45.672 775.72 44.28 776.52 42.744L777.48 43.512C776.616 45.432 775.496 47.112 774.12 48.552C772.776 49.992 771.272 51.112 769.608 51.912C767.976 52.712 766.296 53.112 764.568 53.112ZM762.552 44.424C763.384 44.328 764.312 44.04 765.336 43.56C766.36 43.08 767.336 42.472 768.264 41.736C769.224 41 770.008 40.2 770.616 39.336C771.224 38.44 771.528 37.544 771.528 36.648C771.528 36.296 771.464 36.056 771.336 35.928C771.208 35.8 771 35.736 770.712 35.736C769.976 35.736 769.208 36.008 768.408 36.552C767.608 37.064 766.824 37.752 766.056 38.616C765.288 39.448 764.6 40.376 763.992 41.4C763.384 42.424 762.904 43.432 762.552 44.424ZM780.975 53.448C779.375 53.448 778.079 53.112 777.087 52.44C776.127 51.8 775.439 50.984 775.023 49.992C774.607 48.968 774.399 47.928 774.399 46.872C774.399 45.944 774.527 45.224 774.783 44.712C775.039 44.2 775.359 43.832 775.743 43.608C776.127 43.352 776.479 43.16 776.799 43.032C777.151 42.904 777.407 42.76 777.567 42.6C778.367 41.768 779.183 40.808 780.015 39.72C780.879 38.6 781.615 37.368 782.223 36.024V35.544C782.223 34.264 782.431 33.368 782.847 32.856C783.295 32.312 783.807 32.04 784.383 32.04C784.767 32.04 785.039 32.136 785.199 32.328C785.391 32.52 785.503 32.744 785.535 33C785.535 33.192 785.487 33.416 785.391 33.672C785.327 33.928 785.295 34.28 785.295 34.728C785.295 35.688 785.519 36.792 785.967 38.04C786.447 39.256 786.911 40.552 787.359 41.928C787.839 43.304 788.079 44.712 788.079 46.152C788.079 46.536 788.063 46.888 788.031 47.208C787.999 47.528 787.951 47.832 787.887 48.12C788.879 47.864 789.855 47.32 790.815 46.488C791.775 45.624 792.687 44.36 793.551 42.696L794.127 43.128C793.519 44.952 792.639 46.424 791.487 47.544C790.335 48.632 788.991 49.304 787.455 49.56C786.943 50.872 786.095 51.848 784.911 52.488C783.759 53.128 782.447 53.448 780.975 53.448ZM780.639 51.336C781.279 51.336 781.871 51.176 782.415 50.856C782.959 50.536 783.391 50.072 783.711 49.464C782.399 49.176 781.215 48.664 780.159 47.928C779.103 47.192 778.287 46.44 777.711 45.672C777.263 45.768 777.039 46.2 777.039 46.968C777.039 48.024 777.343 49.016 777.951 49.944C778.559 50.872 779.455 51.336 780.639 51.336ZM784.095 48.024C784.159 47.8 784.191 47.544 784.191 47.256C784.223 46.936 784.239 46.696 784.239 46.536C784.207 45.096 784.015 43.672 783.663 42.264C783.311 40.856 782.959 39.416 782.607 37.944C782.031 38.936 781.359 40.008 780.591 41.16C779.823 42.312 779.103 43.24 778.431 43.944C778.943 44.808 779.695 45.624 780.687 46.392C781.679 47.16 782.815 47.704 784.095 48.024Z" fill="white"/>
<defs>
<filter id="filter0_i_144_6" x="0" y="0" width="1349" height="80.0259" filterUnits="userSpaceOnUse" color-interpolation-filters="sRGB">
<feFlood flood-opacity="0" result="BackgroundImageFix"/>
<feBlend mode="normal" in="SourceGraphic" in2="BackgroundImageFix" result="shape"/>
<feColorMatrix in="SourceAlpha" type="matrix" values="0 0 0 0 0 0 0 0 0 0 0 0 0 0 0 0 0 0 127 0" result="hardAlpha"/>
<feOffset dy="4"/>
<feGaussianBlur stdDeviation="2"/>
<feComposite in2="hardAlpha" operator="arithmetic" k2="-1" k3="1"/>
<feColorMatrix type="matrix" values="0 0 0 0 0 0 0 0 0 0 0 0 0 0 0 0 0 0 0.25 0"/>
<feBlend mode="normal" in2="shape" result="effect1_innerShadow_144_6"/>
</filter>
</defs>
</svg>
