<svg width="1349" height="77" viewBox="0 0 1349 77" fill="none" xmlns="http://www.w3.org/2000/svg">
<g filter="url(#filter0_b_144_4)">
<g filter="url(#filter1_i_144_4)">
<rect width="1349" height="76.0258" fill="#FBB739"/>
</g>
<path d="M568.616 55.176C567.656 55.176 566.744 54.92 565.88 54.408C565.048 53.896 564.632 53.24 564.632 52.44C564.632 52.024 564.696 51.576 564.824 51.096C564.984 50.616 565.128 50.168 565.256 49.752C566.248 46.712 567.176 43.88 568.04 41.256C568.904 38.6 569.768 36.056 570.632 33.624C571.528 31.16 572.456 28.696 573.416 26.232C574.408 23.768 575.512 21.192 576.728 18.504C575.512 18.76 574.472 19.096 573.608 19.512C572.744 19.896 572.04 20.248 571.496 20.568C570.952 20.856 570.552 21 570.296 21C570.136 21 569.896 20.888 569.576 20.664C569.288 20.44 569.032 20.184 568.808 19.896C568.584 19.608 568.472 19.352 568.472 19.128C569.368 18.744 570.408 18.344 571.592 17.928C572.808 17.512 574.12 17.16 575.528 16.872C576.936 16.584 578.344 16.44 579.752 16.44C581.256 16.44 582.792 16.648 584.36 17.064C585.928 17.448 587.368 18.04 588.68 18.84C590.024 19.608 591.096 20.584 591.896 21.768C592.728 22.92 593.144 24.28 593.144 25.848C593.144 27.544 592.76 29 591.992 30.216C591.224 31.432 590.2 32.456 588.92 33.288C587.672 34.12 586.312 34.792 584.84 35.304C583.368 35.816 581.896 36.2 580.424 36.456C578.984 36.712 577.688 36.888 576.536 36.984C575.384 37.08 574.52 37.128 573.944 37.128H573.656C572.76 40.296 571.88 43.464 571.016 46.632C570.152 49.768 569.352 52.616 568.616 55.176ZM574.088 35.64C575.88 35.512 577.672 35.208 579.464 34.728C581.256 34.248 582.872 33.592 584.312 32.76C585.784 31.896 586.952 30.824 587.816 29.544C588.712 28.264 589.16 26.776 589.16 25.08C589.16 23.48 588.728 22.184 587.864 21.192C587.032 20.2 585.944 19.448 584.6 18.936C583.288 18.424 581.896 18.152 580.424 18.12C579.272 20.36 578.168 23.016 577.112 26.088C576.056 29.128 575.048 32.312 574.088 35.64ZM592.574 52.44C591.166 52.44 590.11 52.024 589.406 51.192C588.702 50.36 588.35 49.352 588.35 48.168C588.35 47.432 588.478 46.504 588.734 45.384C588.99 44.264 589.342 43.096 589.79 41.88C590.27 40.632 590.814 39.464 591.422 38.376C592.03 37.288 592.686 36.408 593.39 35.736C594.094 35.032 594.798 34.68 595.502 34.68C595.886 34.68 596.222 34.808 596.51 35.064C596.798 35.288 596.942 35.624 596.942 36.072C596.942 36.488 596.686 37.112 596.174 37.944C595.694 38.776 595.118 39.736 594.446 40.824C593.806 41.912 593.23 43.048 592.718 44.232C592.238 45.384 591.998 46.488 591.998 47.544C591.998 48.568 592.174 49.256 592.526 49.608C592.91 49.928 593.454 50.088 594.158 50.088C595.246 50.088 596.43 49.544 597.71 48.456C598.99 47.368 600.318 45.464 601.694 42.744L602.414 43.512C601.294 46.328 599.87 48.52 598.142 50.088C596.414 51.656 594.558 52.44 592.574 52.44ZM598.238 30.792C597.63 30.792 597.07 30.648 596.558 30.36C596.078 30.04 595.838 29.56 595.838 28.92C595.838 28.152 596.254 27.496 597.086 26.952C597.918 26.408 598.782 26.136 599.678 26.136C600.254 26.136 600.734 26.264 601.118 26.52C601.534 26.776 601.742 27.24 601.742 27.912C601.742 28.584 601.374 29.24 600.638 29.88C599.902 30.488 599.102 30.792 598.238 30.792ZM600.837 64.44C599.717 64.44 598.837 64.216 598.197 63.768C597.525 63.352 597.189 62.648 597.189 61.656C597.189 60.568 597.541 59.592 598.245 58.728C598.917 57.864 599.829 57.048 600.981 56.28C602.165 55.512 603.461 54.728 604.869 53.928C606.309 53.128 607.749 52.248 609.189 51.288C609.157 50.264 608.837 49.288 608.229 48.36C607.653 47.432 606.629 46.44 605.157 45.384C606.405 45.032 607.461 44.488 608.325 43.752C609.189 42.984 609.845 42.152 610.293 41.256C610.741 40.328 610.965 39.464 610.965 38.664C610.965 38.088 610.821 37.576 610.533 37.128C610.245 36.648 609.733 36.408 608.997 36.408C608.037 36.408 607.141 36.824 606.309 37.656C605.477 38.488 604.677 39.56 603.909 40.872C603.173 42.184 602.453 43.592 601.749 45.096L600.837 44.328C601.541 42.44 602.277 40.728 603.045 39.192C603.845 37.624 604.773 36.376 605.829 35.448C606.917 34.52 608.213 34.056 609.717 34.056C611.029 34.056 612.149 34.424 613.077 35.16C614.005 35.896 614.469 36.968 614.469 38.376C614.469 39.368 614.213 40.344 613.701 41.304C613.221 42.232 612.565 43.096 611.733 43.896C610.933 44.664 610.037 45.304 609.045 45.816C609.749 46.36 610.357 46.984 610.869 47.688C611.413 48.392 611.845 49.08 612.165 49.752C613.317 48.856 614.357 47.864 615.285 46.776C616.213 45.688 616.949 44.44 617.493 43.032L618.117 43.8C617.637 45.208 616.917 46.536 615.957 47.784C615.029 49 613.925 50.072 612.645 51C612.709 51.224 612.757 51.448 612.789 51.672C612.821 51.928 612.837 52.232 612.837 52.584C612.837 53.992 612.517 55.384 611.877 56.76C611.237 58.168 610.341 59.448 609.189 60.6C608.069 61.752 606.789 62.68 605.349 63.384C603.941 64.088 602.437 64.44 600.837 64.44ZM600.165 62.616C600.741 62.616 601.477 62.392 602.373 61.944C603.301 61.528 604.229 60.904 605.157 60.072C606.117 59.272 606.949 58.296 607.653 57.144C608.389 55.992 608.869 54.68 609.093 53.208C607.909 53.976 606.709 54.696 605.493 55.368C604.277 56.04 603.173 56.696 602.181 57.336C601.189 58.008 600.389 58.664 599.781 59.304C599.173 59.944 598.869 60.616 598.869 61.32C598.869 61.768 598.997 62.088 599.253 62.28C599.509 62.504 599.813 62.616 600.165 62.616ZM616.728 64.44C615.608 64.44 614.728 64.216 614.088 63.768C613.416 63.352 613.08 62.648 613.08 61.656C613.08 60.568 613.432 59.592 614.136 58.728C614.808 57.864 615.72 57.048 616.872 56.28C618.056 55.512 619.352 54.728 620.76 53.928C622.2 53.128 623.64 52.248 625.08 51.288C625.048 50.264 624.728 49.288 624.12 48.36C623.544 47.432 622.52 46.44 621.048 45.384C622.296 45.032 623.352 44.488 624.216 43.752C625.08 42.984 625.736 42.152 626.184 41.256C626.632 40.328 626.856 39.464 626.856 38.664C626.856 38.088 626.712 37.576 626.424 37.128C626.136 36.648 625.624 36.408 624.888 36.408C623.928 36.408 623.032 36.824 622.2 37.656C621.368 38.488 620.568 39.56 619.8 40.872C619.064 42.184 618.344 43.592 617.64 45.096L616.728 44.328C617.432 42.44 618.168 40.728 618.936 39.192C619.736 37.624 620.664 36.376 621.72 35.448C622.808 34.52 624.104 34.056 625.608 34.056C626.92 34.056 628.04 34.424 628.968 35.16C629.896 35.896 630.36 36.968 630.36 38.376C630.36 39.368 630.104 40.344 629.592 41.304C629.112 42.232 628.456 43.096 627.624 43.896C626.824 44.664 625.928 45.304 624.936 45.816C625.64 46.36 626.248 46.984 626.76 47.688C627.304 48.392 627.736 49.08 628.056 49.752C629.208 48.856 630.248 47.864 631.176 46.776C632.104 45.688 632.84 44.44 633.384 43.032L634.008 43.8C633.528 45.208 632.808 46.536 631.848 47.784C630.92 49 629.816 50.072 628.536 51C628.6 51.224 628.648 51.448 628.68 51.672C628.712 51.928 628.728 52.232 628.728 52.584C628.728 53.992 628.408 55.384 627.768 56.76C627.128 58.168 626.232 59.448 625.08 60.6C623.96 61.752 622.68 62.68 621.24 63.384C619.832 64.088 618.328 64.44 616.728 64.44ZM616.056 62.616C616.632 62.616 617.368 62.392 618.264 61.944C619.192 61.528 620.12 60.904 621.048 60.072C622.008 59.272 622.84 58.296 623.544 57.144C624.28 55.992 624.76 54.68 624.984 53.208C623.8 53.976 622.6 54.696 621.384 55.368C620.168 56.04 619.064 56.696 618.072 57.336C617.08 58.008 616.28 58.664 615.672 59.304C615.064 59.944 614.76 60.616 614.76 61.32C614.76 61.768 614.888 62.088 615.144 62.28C615.4 62.504 615.704 62.616 616.056 62.616ZM634.922 53.256C633.866 53.256 632.954 52.904 632.186 52.2C631.386 51.496 630.986 50.44 630.986 49.032C630.986 47.912 631.242 46.696 631.754 45.384C632.266 44.072 632.97 42.776 633.866 41.496C634.762 40.216 635.786 39.064 636.938 38.04C638.09 36.984 639.322 36.136 640.634 35.496C641.946 34.856 643.258 34.536 644.57 34.536C645.946 34.536 647.114 34.888 648.074 35.592C649.034 36.296 649.514 37.224 649.514 38.376C649.514 39.24 649.21 39.864 648.602 40.248C647.994 40.632 647.274 40.744 646.442 40.584C646.506 40.296 646.554 40.008 646.586 39.72C646.65 39.432 646.682 39.128 646.682 38.808C646.682 38.168 646.554 37.592 646.298 37.08C646.042 36.568 645.498 36.312 644.666 36.312C643.77 36.312 642.858 36.616 641.93 37.224C641.002 37.832 640.106 38.632 639.242 39.624C638.41 40.584 637.658 41.656 636.986 42.84C636.314 43.992 635.786 45.128 635.402 46.248C635.018 47.368 634.826 48.376 634.826 49.272C634.826 50.296 635.194 50.808 635.93 50.808C636.666 50.808 637.482 50.456 638.378 49.752C639.274 49.016 640.17 48.104 641.066 47.016C641.994 45.928 642.874 44.824 643.706 43.704C644.538 42.552 645.258 41.576 645.866 40.776C645.962 40.616 646.09 40.536 646.25 40.536C646.378 40.568 646.618 40.648 646.97 40.776C647.354 40.872 647.706 41.032 648.026 41.256C648.346 41.48 648.506 41.768 648.506 42.12C648.506 42.44 648.362 42.856 648.074 43.368C647.818 43.848 647.498 44.392 647.114 45C646.762 45.576 646.442 46.168 646.154 46.776C645.898 47.352 645.77 47.912 645.77 48.456C645.77 48.872 645.882 49.272 646.106 49.656C646.33 50.008 646.698 50.184 647.21 50.184C647.978 50.184 649.05 49.624 650.426 48.504C651.834 47.352 653.258 45.416 654.698 42.696L655.61 43.608C654.842 45.336 653.914 46.872 652.826 48.216C651.77 49.528 650.65 50.552 649.466 51.288C648.282 52.056 647.082 52.44 645.866 52.44C644.554 52.44 643.578 52.024 642.938 51.192C642.298 50.36 641.946 49.464 641.882 48.504C641.882 48.44 641.882 48.392 641.882 48.36C641.882 48.328 641.882 48.296 641.882 48.264C640.602 49.8 639.418 51.016 638.33 51.912C637.274 52.808 636.138 53.256 634.922 53.256ZM659.179 53.448C657.579 53.448 656.283 53.112 655.291 52.44C654.331 51.8 653.642 50.984 653.226 49.992C652.81 48.968 652.602 47.928 652.602 46.872C652.602 45.944 652.73 45.224 652.986 44.712C653.242 44.2 653.562 43.832 653.947 43.608C654.331 43.352 654.683 43.16 655.003 43.032C655.355 42.904 655.611 42.76 655.771 42.6C656.571 41.768 657.387 40.808 658.219 39.72C659.083 38.6 659.819 37.368 660.427 36.024V35.544C660.427 34.264 660.635 33.368 661.051 32.856C661.499 32.312 662.011 32.04 662.587 32.04C662.971 32.04 663.243 32.136 663.403 32.328C663.595 32.52 663.707 32.744 663.739 33C663.739 33.192 663.691 33.416 663.595 33.672C663.531 33.928 663.499 34.28 663.499 34.728C663.499 35.688 663.723 36.792 664.171 38.04C664.651 39.256 665.115 40.552 665.562 41.928C666.043 43.304 666.283 44.712 666.283 46.152C666.283 46.536 666.267 46.888 666.234 47.208C666.203 47.528 666.155 47.832 666.091 48.12C667.083 47.864 668.059 47.32 669.019 46.488C669.979 45.624 670.891 44.36 671.755 42.696L672.331 43.128C671.723 44.952 670.843 46.424 669.691 47.544C668.539 48.632 667.195 49.304 665.659 49.56C665.147 50.872 664.299 51.848 663.115 52.488C661.963 53.128 660.651 53.448 659.179 53.448ZM658.843 51.336C659.483 51.336 660.075 51.176 660.618 50.856C661.163 50.536 661.595 50.072 661.915 49.464C660.603 49.176 659.419 48.664 658.363 47.928C657.307 47.192 656.491 46.44 655.915 45.672C655.467 45.768 655.243 46.2 655.243 46.968C655.243 48.024 655.547 49.016 656.155 49.944C656.763 50.872 657.659 51.336 658.843 51.336ZM662.299 48.024C662.363 47.8 662.395 47.544 662.395 47.256C662.427 46.936 662.443 46.696 662.443 46.536C662.411 45.096 662.219 43.672 661.867 42.264C661.515 40.856 661.163 39.416 660.811 37.944C660.235 38.936 659.563 40.008 658.795 41.16C658.027 42.312 657.307 43.24 656.635 43.944C657.147 44.808 657.899 45.624 658.891 46.392C659.883 47.16 661.019 47.704 662.299 48.024ZM694.043 55.176C692.187 55.176 690.411 54.856 688.715 54.216C687.051 53.576 685.691 52.6 684.635 51.288C683.579 49.976 683.051 48.344 683.051 46.392C683.051 44.664 683.435 43.32 684.203 42.36C684.971 41.368 685.931 40.68 687.083 40.296C688.235 39.912 689.355 39.72 690.443 39.72C689.419 40.808 688.635 41.928 688.091 43.08C687.579 44.232 687.323 45.336 687.323 46.392C687.323 47.48 687.595 48.504 688.139 49.464C688.715 50.392 689.563 51.144 690.683 51.72C691.803 52.328 693.195 52.632 694.859 52.632C696.299 52.632 697.691 52.392 699.035 51.912C700.411 51.432 701.531 50.712 702.395 49.752C703.291 48.792 703.739 47.592 703.739 46.152C703.739 44.84 703.355 43.72 702.587 42.792C701.851 41.832 700.891 40.984 699.707 40.248C698.523 39.48 697.275 38.76 695.963 38.088C694.651 37.384 693.403 36.632 692.219 35.832C691.035 35.032 690.059 34.104 689.291 33.048C688.555 31.992 688.187 30.728 688.187 29.256C688.187 27.944 688.507 26.552 689.147 25.08C689.819 23.576 690.763 22.168 691.979 20.856C693.195 19.544 694.667 18.488 696.395 17.688C698.123 16.856 700.043 16.44 702.155 16.44C704.363 16.44 705.915 16.904 706.811 17.832C707.707 18.76 708.155 19.976 708.155 21.48C708.155 22.664 707.947 23.928 707.531 25.272C707.115 26.616 706.603 27.896 705.995 29.112C705.419 30.328 704.859 31.368 704.315 32.232C703.611 32.072 703.083 31.8 702.731 31.416C702.379 31 702.203 30.456 702.203 29.784C702.203 29.112 702.331 28.36 702.587 27.528C702.875 26.696 703.195 25.832 703.547 24.936C703.931 24.04 704.251 23.176 704.507 22.344C704.795 21.48 704.939 20.728 704.939 20.088C704.939 19.512 704.763 19.064 704.411 18.744C704.091 18.424 703.419 18.264 702.395 18.264C700.859 18.264 699.451 18.6 698.171 19.272C696.891 19.944 695.771 20.792 694.811 21.816C693.883 22.84 693.163 23.928 692.651 25.08C692.139 26.2 691.883 27.224 691.883 28.152C691.883 29.304 692.251 30.296 692.987 31.128C693.723 31.928 694.667 32.664 695.819 33.336C697.003 34.008 698.235 34.68 699.515 35.352C700.827 36.024 702.059 36.776 703.211 37.608C704.395 38.44 705.355 39.432 706.091 40.584C706.827 41.736 707.195 43.144 707.195 44.808C707.195 46.472 706.811 47.944 706.043 49.224C705.307 50.504 704.299 51.576 703.019 52.44C701.739 53.336 700.315 54.008 698.747 54.456C697.211 54.936 695.643 55.176 694.043 55.176ZM712.782 53.256C711.726 53.256 710.814 52.904 710.046 52.2C709.246 51.496 708.846 50.44 708.846 49.032C708.846 47.912 709.102 46.696 709.614 45.384C710.126 44.072 710.83 42.776 711.726 41.496C712.622 40.216 713.646 39.064 714.798 38.04C715.95 36.984 717.182 36.136 718.494 35.496C719.806 34.856 721.118 34.536 722.43 34.536C723.806 34.536 724.974 34.888 725.934 35.592C726.894 36.296 727.374 37.224 727.374 38.376C727.374 39.24 727.07 39.864 726.462 40.248C725.854 40.632 725.134 40.744 724.302 40.584C724.366 40.296 724.414 40.008 724.446 39.72C724.51 39.432 724.542 39.128 724.542 38.808C724.542 38.168 724.414 37.592 724.158 37.08C723.902 36.568 723.358 36.312 722.526 36.312C721.63 36.312 720.718 36.616 719.79 37.224C718.862 37.832 717.966 38.632 717.102 39.624C716.27 40.584 715.518 41.656 714.846 42.84C714.174 43.992 713.646 45.128 713.262 46.248C712.878 47.368 712.686 48.376 712.686 49.272C712.686 50.296 713.054 50.808 713.79 50.808C714.526 50.808 715.342 50.456 716.238 49.752C717.134 49.016 718.03 48.104 718.926 47.016C719.854 45.928 720.734 44.824 721.566 43.704C722.398 42.552 723.118 41.576 723.726 40.776C723.822 40.616 723.95 40.536 724.11 40.536C724.238 40.568 724.478 40.648 724.83 40.776C725.214 40.872 725.566 41.032 725.886 41.256C726.206 41.48 726.366 41.768 726.366 42.12C726.366 42.44 726.222 42.856 725.934 43.368C725.678 43.848 725.358 44.392 724.974 45C724.622 45.576 724.302 46.168 724.014 46.776C723.758 47.352 723.63 47.912 723.63 48.456C723.63 48.872 723.742 49.272 723.966 49.656C724.19 50.008 724.558 50.184 725.07 50.184C725.838 50.184 726.91 49.624 728.286 48.504C729.694 47.352 731.118 45.416 732.558 42.696L733.47 43.608C732.702 45.336 731.774 46.872 730.686 48.216C729.63 49.528 728.51 50.552 727.326 51.288C726.142 52.056 724.942 52.44 723.726 52.44C722.414 52.44 721.438 52.024 720.798 51.192C720.158 50.36 719.806 49.464 719.742 48.504C719.742 48.44 719.742 48.392 719.742 48.36C719.742 48.328 719.742 48.296 719.742 48.264C718.462 49.8 717.278 51.016 716.19 51.912C715.134 52.808 713.998 53.256 712.782 53.256ZM735.55 52.44C734.046 52.44 732.99 51.944 732.382 50.952C731.806 49.928 731.518 48.728 731.518 47.352C731.518 45.784 731.806 43.944 732.382 41.832C732.958 39.72 733.71 37.512 734.638 35.208C735.598 32.872 736.638 30.6 737.758 28.392C738.91 26.152 740.062 24.136 741.214 22.344C742.366 20.552 743.422 19.128 744.382 18.072C745.374 16.984 746.174 16.44 746.782 16.44C747.198 16.44 747.55 16.664 747.838 17.112C748.126 17.528 748.35 18.04 748.51 18.648C748.702 19.224 748.798 19.768 748.798 20.28C748.798 21.144 748.574 22.28 748.126 23.688C747.71 25.064 747.102 26.584 746.302 28.248C745.534 29.912 744.606 31.624 743.518 33.384C742.462 35.112 741.278 36.76 739.966 38.328C738.686 39.896 737.31 41.256 735.838 42.408C735.71 43.208 735.582 44.008 735.454 44.808C735.358 45.576 735.31 46.28 735.31 46.92C735.31 48.072 735.502 48.92 735.886 49.464C736.27 49.976 736.766 50.232 737.374 50.232C738.174 50.232 738.99 49.864 739.822 49.128C740.686 48.36 741.502 47.4 742.27 46.248C743.07 45.064 743.758 43.848 744.334 42.6L745.486 43.224C744.11 46.072 742.574 48.328 740.878 49.992C739.182 51.624 737.406 52.44 735.55 52.44ZM736.702 39.432C737.79 38.248 738.814 36.968 739.774 35.592C740.766 34.184 741.662 32.76 742.462 31.32C743.294 29.88 744.014 28.488 744.622 27.144C745.23 25.8 745.694 24.6 746.014 23.544C746.366 22.456 746.558 21.592 746.59 20.952C746.59 20.92 746.59 20.904 746.59 20.904C746.59 20.872 746.59 20.84 746.59 20.808C746.334 20.808 745.918 21.176 745.342 21.912C744.798 22.616 744.142 23.592 743.374 24.84C742.606 26.088 741.806 27.512 740.974 29.112C740.174 30.712 739.39 32.408 738.622 34.2C737.886 35.96 737.246 37.704 736.702 39.432ZM745.588 64.44C744.788 64.44 744.036 64.2 743.332 63.72C742.659 63.24 742.323 62.456 742.323 61.368C742.323 60.344 742.611 59.416 743.188 58.584C743.796 57.784 744.58 57.032 745.54 56.328C746.532 55.656 747.588 55.032 748.708 54.456C749.828 53.88 750.916 53.336 751.972 52.824C752.324 51.96 752.66 51.032 752.98 50.04C753.3 49.048 753.604 47.976 753.892 46.824C752.772 48.232 751.588 49.4 750.34 50.328C749.124 51.256 747.876 51.72 746.596 51.72C745.316 51.72 744.292 51.272 743.524 50.376C742.787 49.48 742.419 48.296 742.419 46.824C742.419 45.128 742.835 43.544 743.668 42.072C744.532 40.568 745.636 39.24 746.98 38.088C748.324 36.904 749.764 35.992 751.3 35.352C752.836 34.68 754.308 34.344 755.716 34.344C756.74 34.344 757.508 34.536 758.02 34.92C758.532 35.272 758.788 35.688 758.788 36.168C758.788 36.552 758.676 36.856 758.452 37.08C758.228 37.304 758.084 37.432 758.02 37.464C757.7 37.112 757.364 36.888 757.012 36.792C756.692 36.664 756.308 36.6 755.859 36.6C754.612 36.6 753.412 36.952 752.26 37.656C751.108 38.36 750.084 39.272 749.188 40.392C748.324 41.48 747.636 42.616 747.124 43.8C746.612 44.984 746.355 46.056 746.355 47.016C746.355 47.656 746.5 48.152 746.788 48.504C747.076 48.824 747.428 48.984 747.844 48.984C748.74 48.984 749.828 48.408 751.108 47.256C752.388 46.072 753.62 44.648 754.804 42.984C754.868 42.728 754.916 42.504 754.948 42.312C755.012 42.088 755.06 41.88 755.092 41.688C755.412 40.408 755.796 39.464 756.244 38.856C756.692 38.248 757.316 37.944 758.116 37.944C758.276 37.944 758.468 37.96 758.692 37.992C758.948 38.024 759.22 38.072 759.508 38.136C759.508 38.712 759.348 39.656 759.028 40.968C758.708 42.28 758.276 43.816 757.732 45.576C757.188 47.304 756.58 49.08 755.908 50.904C756.9 50.488 757.908 49.912 758.932 49.176C759.956 48.408 760.9 47.496 761.764 46.44C762.628 45.352 763.284 44.152 763.732 42.84L764.596 43.704C764.084 45.176 763.284 46.52 762.196 47.736C761.14 48.952 759.988 50.008 758.74 50.904C757.492 51.768 756.34 52.44 755.284 52.92C754.42 55.032 753.476 56.952 752.452 58.68C751.46 60.44 750.388 61.832 749.236 62.856C748.116 63.912 746.9 64.44 745.588 64.44ZM745.396 62.232C745.972 62.232 746.756 61.688 747.748 60.6C748.772 59.512 749.876 57.672 751.06 55.08C749.876 55.656 748.788 56.248 747.796 56.856C746.804 57.464 746.004 58.104 745.396 58.776C744.788 59.448 744.484 60.152 744.484 60.888C744.484 61.304 744.564 61.624 744.724 61.848C744.916 62.104 745.14 62.232 745.396 62.232ZM765.235 53.256C764.179 53.256 763.267 52.904 762.499 52.2C761.699 51.496 761.299 50.44 761.299 49.032C761.299 47.912 761.555 46.696 762.067 45.384C762.579 44.072 763.283 42.776 764.179 41.496C765.075 40.216 766.099 39.064 767.251 38.04C768.403 36.984 769.635 36.136 770.947 35.496C772.259 34.856 773.571 34.536 774.883 34.536C776.259 34.536 777.427 34.888 778.387 35.592C779.347 36.296 779.827 37.224 779.827 38.376C779.827 39.24 779.523 39.864 778.915 40.248C778.307 40.632 777.587 40.744 776.755 40.584C776.819 40.296 776.867 40.008 776.899 39.72C776.963 39.432 776.995 39.128 776.995 38.808C776.995 38.168 776.867 37.592 776.611 37.08C776.355 36.568 775.811 36.312 774.979 36.312C774.083 36.312 773.171 36.616 772.243 37.224C771.315 37.832 770.419 38.632 769.555 39.624C768.723 40.584 767.971 41.656 767.299 42.84C766.627 43.992 766.099 45.128 765.715 46.248C765.331 47.368 765.139 48.376 765.139 49.272C765.139 50.296 765.507 50.808 766.243 50.808C766.979 50.808 767.795 50.456 768.691 49.752C769.587 49.016 770.483 48.104 771.379 47.016C772.307 45.928 773.187 44.824 774.019 43.704C774.851 42.552 775.571 41.576 776.179 40.776C776.275 40.616 776.403 40.536 776.563 40.536C776.691 40.568 776.931 40.648 777.283 40.776C777.667 40.872 778.019 41.032 778.339 41.256C778.659 41.48 778.819 41.768 778.819 42.12C778.819 42.44 778.675 42.856 778.387 43.368C778.131 43.848 777.811 44.392 777.427 45C777.075 45.576 776.755 46.168 776.467 46.776C776.211 47.352 776.083 47.912 776.083 48.456C776.083 48.872 776.195 49.272 776.419 49.656C776.643 50.008 777.011 50.184 777.523 50.184C778.291 50.184 779.363 49.624 780.739 48.504C782.147 47.352 783.571 45.416 785.011 42.696L785.923 43.608C785.155 45.336 784.227 46.872 783.139 48.216C782.083 49.528 780.963 50.552 779.779 51.288C778.595 52.056 777.395 52.44 776.179 52.44C774.867 52.44 773.891 52.024 773.251 51.192C772.611 50.36 772.259 49.464 772.195 48.504C772.195 48.44 772.195 48.392 772.195 48.36C772.195 48.328 772.195 48.296 772.195 48.264C770.915 49.8 769.731 51.016 768.643 51.912C767.587 52.808 766.451 53.256 765.235 53.256ZM787.187 52.44C786.579 52.44 785.955 52.28 785.315 51.96C784.707 51.672 784.195 51.208 783.779 50.568C783.331 49.928 783.107 49.112 783.107 48.12C783.107 47.064 783.363 45.88 783.875 44.568C784.387 43.256 785.075 41.944 785.939 40.632C786.835 39.32 787.859 38.12 789.011 37.032C790.195 35.944 791.443 35.064 792.755 34.392C794.067 33.72 795.395 33.384 796.739 33.384C797.475 33.384 798.051 33.512 798.467 33.768C798.883 33.992 799.091 34.376 799.091 34.92C799.091 35.08 799.059 35.272 798.995 35.496C798.931 35.688 798.771 35.864 798.515 36.024C798.387 35.832 798.163 35.704 797.843 35.64C797.523 35.544 797.187 35.496 796.835 35.496C795.779 35.496 794.771 35.8 793.811 36.408C792.851 36.984 791.971 37.736 791.171 38.664C790.371 39.592 789.667 40.6 789.059 41.688C788.483 42.776 788.035 43.832 787.715 44.856C787.395 45.848 787.235 46.712 787.235 47.448C787.235 48.056 787.363 48.552 787.619 48.936C787.875 49.288 788.259 49.464 788.771 49.464C789.635 49.464 790.659 48.968 791.843 47.976C793.059 46.952 794.291 45.496 795.539 43.608C796.819 41.688 797.971 39.4 798.995 36.744C799.699 34.92 800.435 33.064 801.203 31.176C801.971 29.256 802.739 27.416 803.507 25.656C804.275 23.896 805.027 22.328 805.763 20.952C806.531 19.576 807.251 18.488 807.923 17.688C808.627 16.856 809.267 16.44 809.843 16.44C810.195 16.44 810.499 16.584 810.755 16.872C811.043 17.128 811.187 17.464 811.187 17.88C811.187 18.424 810.915 19.304 810.371 20.52C809.859 21.704 809.187 23.128 808.355 24.792C807.555 26.456 806.675 28.264 805.715 30.216C804.787 32.136 803.907 34.12 803.075 36.168C802.275 38.184 801.603 40.184 801.059 42.168C800.547 44.12 800.291 45.96 800.291 47.688C800.291 48.456 800.355 48.984 800.483 49.272C800.643 49.528 800.899 49.656 801.251 49.656C801.955 49.656 802.739 49.384 803.603 48.84C804.467 48.296 805.347 47.496 806.243 46.44C807.139 45.352 807.955 44.056 808.691 42.552L809.603 43.32C808.899 45.08 808.003 46.632 806.915 47.976C805.827 49.32 804.659 50.36 803.411 51.096C802.163 51.864 800.931 52.248 799.715 52.248C798.403 52.248 797.491 51.832 796.979 51C796.467 50.168 796.211 49.192 796.211 48.072C796.211 47.56 796.243 47.048 796.307 46.536C796.403 45.992 796.499 45.464 796.595 44.952C795.603 46.392 794.547 47.688 793.427 48.84C792.339 49.96 791.267 50.84 790.211 51.48C789.155 52.12 788.147 52.44 787.187 52.44ZM810.141 53.256C809.085 53.256 808.173 52.904 807.405 52.2C806.605 51.496 806.205 50.44 806.205 49.032C806.205 47.912 806.461 46.696 806.973 45.384C807.485 44.072 808.189 42.776 809.085 41.496C809.981 40.216 811.005 39.064 812.157 38.04C813.309 36.984 814.541 36.136 815.853 35.496C817.165 34.856 818.477 34.536 819.789 34.536C821.165 34.536 822.333 34.888 823.293 35.592C824.253 36.296 824.733 37.224 824.733 38.376C824.733 39.24 824.429 39.864 823.821 40.248C823.213 40.632 822.493 40.744 821.661 40.584C821.725 40.296 821.773 40.008 821.805 39.72C821.869 39.432 821.901 39.128 821.901 38.808C821.901 38.168 821.773 37.592 821.517 37.08C821.261 36.568 820.717 36.312 819.885 36.312C818.989 36.312 818.077 36.616 817.149 37.224C816.221 37.832 815.325 38.632 814.461 39.624C813.629 40.584 812.877 41.656 812.205 42.84C811.533 43.992 811.005 45.128 810.621 46.248C810.237 47.368 810.045 48.376 810.045 49.272C810.045 50.296 810.413 50.808 811.149 50.808C811.885 50.808 812.701 50.456 813.597 49.752C814.493 49.016 815.389 48.104 816.285 47.016C817.213 45.928 818.093 44.824 818.925 43.704C819.757 42.552 820.477 41.576 821.085 40.776C821.181 40.616 821.309 40.536 821.469 40.536C821.597 40.568 821.837 40.648 822.189 40.776C822.573 40.872 822.925 41.032 823.245 41.256C823.565 41.48 823.725 41.768 823.725 42.12C823.725 42.44 823.581 42.856 823.293 43.368C823.037 43.848 822.717 44.392 822.333 45C821.981 45.576 821.661 46.168 821.373 46.776C821.117 47.352 820.989 47.912 820.989 48.456C820.989 48.872 821.101 49.272 821.325 49.656C821.549 50.008 821.917 50.184 822.429 50.184C823.197 50.184 824.269 49.624 825.645 48.504C827.053 47.352 828.477 45.416 829.917 42.696L830.829 43.608C830.061 45.336 829.133 46.872 828.045 48.216C826.989 49.528 825.869 50.552 824.685 51.288C823.501 52.056 822.301 52.44 821.085 52.44C819.773 52.44 818.797 52.024 818.157 51.192C817.517 50.36 817.165 49.464 817.101 48.504C817.101 48.44 817.101 48.392 817.101 48.36C817.101 48.328 817.101 48.296 817.101 48.264C815.821 49.8 814.637 51.016 813.549 51.912C812.493 52.808 811.357 53.256 810.141 53.256ZM834.397 53.448C832.797 53.448 831.501 53.112 830.509 52.44C829.549 51.8 828.861 50.984 828.445 49.992C828.029 48.968 827.821 47.928 827.821 46.872C827.821 45.944 827.949 45.224 828.205 44.712C828.461 44.2 828.781 43.832 829.165 43.608C829.549 43.352 829.901 43.16 830.221 43.032C830.573 42.904 830.829 42.76 830.989 42.6C831.789 41.768 832.605 40.808 833.437 39.72C834.301 38.6 835.037 37.368 835.645 36.024V35.544C835.645 34.264 835.853 33.368 836.269 32.856C836.717 32.312 837.229 32.04 837.805 32.04C838.189 32.04 838.461 32.136 838.621 32.328C838.813 32.52 838.925 32.744 838.957 33C838.957 33.192 838.909 33.416 838.813 33.672C838.749 33.928 838.717 34.28 838.717 34.728C838.717 35.688 838.941 36.792 839.389 38.04C839.869 39.256 840.333 40.552 840.781 41.928C841.261 43.304 841.501 44.712 841.501 46.152C841.501 46.536 841.485 46.888 841.453 47.208C841.421 47.528 841.373 47.832 841.309 48.12C842.301 47.864 843.277 47.32 844.237 46.488C845.197 45.624 846.109 44.36 846.973 42.696L847.549 43.128C846.941 44.952 846.061 46.424 844.909 47.544C843.757 48.632 842.413 49.304 840.877 49.56C840.365 50.872 839.517 51.848 838.333 52.488C837.181 53.128 835.869 53.448 834.397 53.448ZM834.061 51.336C834.701 51.336 835.293 51.176 835.837 50.856C836.381 50.536 836.813 50.072 837.133 49.464C835.821 49.176 834.637 48.664 833.581 47.928C832.525 47.192 831.709 46.44 831.133 45.672C830.685 45.768 830.461 46.2 830.461 46.968C830.461 48.024 830.765 49.016 831.373 49.944C831.981 50.872 832.877 51.336 834.061 51.336ZM837.517 48.024C837.581 47.8 837.613 47.544 837.613 47.256C837.645 46.936 837.661 46.696 837.661 46.536C837.629 45.096 837.437 43.672 837.085 42.264C836.733 40.856 836.381 39.416 836.029 37.944C835.453 38.936 834.781 40.008 834.013 41.16C833.245 42.312 832.525 43.24 831.853 43.944C832.365 44.808 833.117 45.624 834.109 46.392C835.101 47.16 836.237 47.704 837.517 48.024Z" fill="white"/>
</g>
<defs>
<filter id="filter0_b_144_4" x="-4" y="-4" width="1357" height="84.0259" filterUnits="userSpaceOnUse" color-interpolation-filters="sRGB">
<feFlood flood-opacity="0" result="BackgroundImageFix"/>
<feGaussianBlur in="BackgroundImageFix" stdDeviation="2"/>
<feComposite in2="SourceAlpha" operator="in" result="effect1_backgroundBlur_144_4"/>
<feBlend mode="normal" in="SourceGraphic" in2="effect1_backgroundBlur_144_4" result="shape"/>
</filter>
<filter id="filter1_i_144_4" x="0" y="0" width="1349" height="80.0259" filterUnits="userSpaceOnUse" color-interpolation-filters="sRGB">
<feFlood flood-opacity="0" result="BackgroundImageFix"/>
<feBlend mode="normal" in="SourceGraphic" in2="BackgroundImageFix" result="shape"/>
<feColorMatrix in="SourceAlpha" type="matrix" values="0 0 0 0 0 0 0 0 0 0 0 0 0 0 0 0 0 0 127 0" result="hardAlpha"/>
<feOffset dy="4"/>
<feGaussianBlur stdDeviation="2"/>
<feComposite in2="hardAlpha" operator="arithmetic" k2="-1" k3="1"/>
<feColorMatrix type="matrix" values="0 0 0 0 0 0 0 0 0 0 0 0 0 0 0 0 0 0 0.25 0"/>
<feBlend mode="normal" in2="shape" result="effect1_innerShadow_144_4"/>
</filter>
</defs>
</svg>
